<?xml version="1.0" standalone="no"?>
<!DOCTYPE svg PUBLIC "-//W3C//DTD SVG 1.1//EN" "http://www.w3.org/Graphics/SVG/1.1/DTD/svg11.dtd" >
<svg>
<metadata>
Created by FontForge 20090914 at Sun Aug 22 20:26:55 2021
 By www-data
Copyright (c) 2020, Kokostd

C O N T A C T

anggarsetioko@gmail.com
</metadata>
<defs>
<font id="Catatan" horiz-adv-x="445" >
  <font-face 
    font-family="Catatan"
    font-weight="400"
    font-stretch="normal"
    units-per-em="1000"
    panose-1="2 0 5 3 0 0 0 0 0 0"
    ascent="700"
    descent="-300"
    x-height="263.001"
    cap-height="596"
    bbox="33 -295.329 646.044 666"
    underline-thickness="49"
    underline-position="-99"
    unicode-range="U+0020-U+007A"
  />
<missing-glyph horiz-adv-x="364" 
d="M33 0v666h265v-666h-265zM66 33h199v600h-199v-600z" />
    <glyph glyph-name=".notdef" horiz-adv-x="364" 
d="M33 0v666h265v-666h-265zM66 33h199v600h-199v-600z" />
    <glyph glyph-name="space" unicode=" " horiz-adv-x="350" 
 />
    <glyph glyph-name="A" unicode="A" horiz-adv-x="551" 
d="M330 629c-12 0.666992 -24.166 -3.49707 -36.499 -12.4971s-22.666 -18.833 -30.999 -29.5s-17.5 -25.167 -27.5 -43.5s-16.833 -31.833 -20.5 -40.5l-14.5 -34c-26 -59.333 -47 -122.666 -63 -189.999c-26 6.66699 -44 17 -54 31c-4.66699 6 -11.167 8.5 -19.5 7.5
s-14.166 -4.33301 -17.499 -10s-3 -12.167 1 -19.5c16 -22 43.667 -37 83 -45c-16 -83.333 -18 -166 -6 -248c0.666992 -8 5.33398 -12.5 14.001 -13.5s15.667 0.5 21 4.5c3.33301 3.33301 6.16602 6.66602 8.49902 9.99902s4.5 7.33301 6.5 12s3.33301 8.16699 4 10.5
s1.83398 6.66602 3.50098 12.999l3.5 13.5l24 81l24 82l3.5 10l3.5 10c49.333 -4.66699 108.666 -6 177.999 -4c0.666992 -2.66699 1.33398 -6.66699 2.00098 -12s1 -9.33301 1 -12c5.33301 -40 10 -81.667 14 -125c0 -3.33301 0.166992 -10.5 0.5 -21.5
s1.16602 -20.167 2.49902 -27.5s3.66602 -14 6.99902 -20c3.33301 -6.66699 9.33301 -10 18 -10l8 2c4 0 7.83301 1.5 11.5 4.5s6.16699 6.83301 7.5 11.5l1 2.5c0.666992 1.66699 1 2.83398 1 3.50098c3.33301 10.667 -1.33398 18.334 -14.001 23.001v10
c0.666992 3.33301 0.5 8.83301 -0.5 16.5s-1.5 12.167 -1.5 13.5c-0.666992 12 -4 39.667 -10 83c-0.666992 6.66699 -1.83398 16.667 -3.50098 30s-3.16699 23.333 -4.5 30h3c8.66699 0.666992 14.667 4.5 18 11.5s3.33301 13.667 0 20s-9.33301 9.16602 -18 8.49902h-8
c-1.33301 7.33301 -3 18.166 -5 32.499s-3.66699 25.166 -5 32.499c-2 12 -4.33301 34 -7 66s-5.5 58.833 -8.5 80.5s-8.83301 45.167 -17.5 70.5s-20 44.666 -34 57.999c-16 15.333 -31.333 23 -46 23zM330.001 574.003c15.333 0 27.666 -15.001 36.999 -45.001
c4.66699 -18.667 11 -53.667 19 -105c2.66699 -18 6.83398 -44.667 12.501 -80s10.167 -61.666 13.5 -78.999c-27.333 -1.33301 -68.666 -1 -123.999 1c-2.66699 0 -8.33398 0.333008 -17.001 1s-15.667 1 -21 1l75 253c2 8 0 14.667 -6 20s-12.667 7.33301 -20 6
s-12 -6 -14 -14l-38.5 -132l-38.5 -132c-8 0 -18.333 1.33301 -31 4c8.66699 41.333 25 93 49 155c41.333 97.333 76 146 104 146zM170.001 236.002c2.66699 0 6 -0.166992 10 -0.5s6.66699 -0.5 8 -0.5s3 -0.333008 5 -1s3.66699 -1 5 -1
c-2.66699 -10 -7.16699 -24.667 -13.5 -44s-10.833 -34 -13.5 -44c-2 -6 -4.33301 -16.833 -7 -32.5s-5 -27.167 -7 -34.5c-2 50 2.33301 102.667 13 158z" />
    <glyph glyph-name="B" unicode="B" horiz-adv-x="616" 
d="M251 641c-50.667 0 -92.002 -8.00781 -124.002 -24.0078c-20 -8.66699 -37 -22.167 -51 -40.5s-23 -37.333 -27 -57s-1.16699 -39 8.5 -58s26.167 -33.5 49.5 -43.5c8 -3.33301 15.167 -2.66602 21.5 2.00098s9.5 10.334 9.5 17.001s-3.66699 12 -11 16
c-22 10 -36.333 21.167 -43 33.5s-7 24 -1 35s15 21.5 27 31.5s24.333 18.167 37 24.5s23.334 10.5 32.001 12.5c29.333 6.66699 58.333 9.33398 87 8.00098c44.667 -2 77.667 -15.333 99 -40s25 -59 11 -103c-9.33301 -27.333 -31.666 -53 -66.999 -77
c-6.66699 0.666992 -16 1.83398 -28 3.50098s-20 2.5 -24 2.5c-0.666992 6.66699 -1.83398 16.834 -3.50098 30.501s-2.5 23.834 -2.5 30.501c-2 12 -9 18.667 -21 20c-11.333 0.666992 -17.666 -4.33301 -18.999 -15v-5c0.666992 -6 1.5 -15.5 2.5 -28.5
s1.5 -22.5 1.5 -28.5c-5.33301 0.666992 -14.5 1.33398 -27.5 2.00098s-22.833 1.33398 -29.5 2.00098c-2 0.666992 -9.83301 1.66699 -23.5 3s-24.167 2.16602 -31.5 2.49902s-15.833 -1 -25.5 -4s-16.834 -7.83301 -21.501 -14.5c-12.667 -20 -6.66699 -40.333 18 -61
c17.333 -14 39.666 -22.667 66.999 -26s54.666 -2 81.999 4c1.33301 -28 2 -56.667 2 -86c-52.667 6 -90.667 -3 -114 -27c-18.667 -20.667 -23.667 -42.667 -15 -66s22.5 -44.333 41.5 -63s38.5 -32 58.5 -40c2 -0.666992 9.66699 -2.66699 23 -6v-8
c-0.666992 -8 2.33301 -13.667 9 -17s13.667 -3.33301 21 0c8.66699 6 14.334 11 17.001 15c39.333 -5.33301 78.333 -3.66602 117 5.00098s71.667 24.334 99 47.001c21.333 17.333 38.833 39.166 52.5 65.499s20.834 53.833 21.501 82.5s-7.33301 55.334 -24 80.001
c-30 41.333 -84 71 -162 89c18 18.667 32.333 41.167 43 67.5s15.334 53.666 14.001 81.999s-10 52.5 -26 72.5c-28.667 34.667 -78.667 52 -150 52zM120.998 352.992c9.33301 0 22.666 -1 39.999 -3s26.333 -3 27 -3c3.33301 -0.666992 8.5 -1 15.5 -1
s12.167 -0.333008 15.5 -1v-6c-37.333 -8.66699 -68.666 -9 -93.999 -1c-24.667 8.66699 -26 13.667 -4 15zM316.998 330.992c15.333 -2.66699 28.168 -5.16895 38.501 -7.50195s23.5 -5.83301 39.5 -10.5s29.333 -9.5 40 -14.5s22 -11.5 34 -19.5s21.167 -16.667 27.5 -26
s11.166 -20.5 14.499 -33.5s3.66602 -27.5 0.999023 -43.5c-7.33301 -40 -27.166 -71.667 -59.499 -95s-69.5 -37 -111.5 -41c-32 -2.66699 -58.333 -2.66699 -79 0c2.66699 51.333 4 90.333 4 117c41.333 -10.667 70 -20.334 86 -29.001c7.33301 -4 14.333 -3.66699 21 1
s9.83398 10.334 9.50098 17.001s-3.83301 12.334 -10.5 17.001c-32 17.333 -67.333 30.333 -106 39c0 24 -1.33301 59.333 -4 106c15.333 4.66699 33.666 12.334 54.999 23.001zM189 165.99l17 0.000976562c8.66699 0 15 -0.333008 19 -1
c0 -39.333 -0.666992 -78.333 -2 -117c-40.667 11.333 -66 30.666 -76 57.999c-13.333 38 0.666992 58 42 60z" />
    <glyph glyph-name="C" unicode="C" horiz-adv-x="519" 
d="M308 617c-17.333 0 -35.0039 -4.33008 -53.0039 -12.9971c-64 -33.333 -116.333 -108.666 -157 -225.999c-7.33301 -20 -13.666 -39.833 -18.999 -59.5s-10.333 -42.167 -15 -67.5s-6.83398 -49.333 -6.50098 -72s2.66602 -44.834 6.99902 -66.501s13 -41 26 -58
s29.833 -30.5 50.5 -40.5c26 -12.667 52 -18 78 -16s50.667 8 74 18s45.666 24.167 66.999 42.5s40.333 37.666 57 57.999s31.334 41.5 44.001 63.5c4.66699 7.33301 4.83398 14.333 0.500977 21s-9.83301 10.167 -16.5 10.5s-12.667 -2.83398 -18 -9.50098
c-10 -18 -21.167 -35 -33.5 -51s-26.833 -32 -43.5 -48s-33.667 -28.667 -51 -38s-36.166 -16.166 -56.499 -20.499s-40.833 -3.16602 -61.5 3.50098c-20 5.33301 -36.333 14.166 -49 26.499s-21.167 27.5 -25.5 45.5s-7 35.833 -8 53.5s0.5 38 4.5 61
s7.83301 42.167 11.5 57.5s8.5 33 14.5 53c17.333 59.333 43 111.666 77 156.999c14 20 27 35 39 45c21.333 17.333 41.5 26.5 60.5 27.5s33.833 -4.83301 44.5 -17.5s18 -29.667 22 -51s1 -45.333 -9 -72c-2 -8 -0.166992 -14.5 5.5 -19.5s12.5 -6.83301 20.5 -5.5
s13 6 15 14c4.66699 21.333 7.83398 39.666 9.50098 54.999s0.833984 32.833 -2.49902 52.5s-10.666 36.167 -21.999 49.5c-20 24.667 -47 37 -81 37z" />
    <glyph glyph-name="D" unicode="D" horiz-adv-x="587" 
d="M271 580c-22 0 -48.001 -4.33301 -78.001 -13c-32.667 -10.667 -61 -27.834 -85 -51.501s-32.333 -50.167 -25 -79.5c7.33301 -32 26.166 -52.833 56.499 -62.5s57.833 -5.5 82.5 12.5c6.66699 4.66699 9.66699 11 9 19s-4 13.667 -10 17s-12.667 3 -20 -1
c-24.667 -11.333 -43.167 -13.666 -55.5 -6.99902s-18.166 19 -17.499 37s7.66699 33 21 45c6.66699 6.66699 16 13.334 28 20.001c29.333 16.667 61.333 25 96 25c30.667 0 61 -7 91 -21s54.667 -32.667 74 -56c22.667 -25.333 38 -54.5 46 -87.5s9.66699 -65.5 5 -97.5
s-14.334 -64 -29.001 -96c-17.333 -39.333 -41.333 -72 -72 -98s-65.667 -41.667 -105 -47c0 64.667 2.66699 128.667 8 192c7.33301 -10.667 12.666 -20.667 15.999 -30c2 -8 6.83301 -12.667 14.5 -14s14.334 0.666992 20.001 6s7.5 12 5.5 20
c-7.33301 28 -24.666 50 -51.999 66c4 34.667 11.333 84.667 22 150c1.33301 7.33301 -0.666992 13.666 -6 18.999s-11.5 7.16602 -18.5 5.49902s-11.5 -6.83398 -13.5 -15.501c-11.333 -66 -18.666 -114.333 -21.999 -145c-37.333 8 -75.5 3.5 -114.5 -13.5
s-65.167 -41.833 -78.5 -74.5c-11.333 -31.333 -14.333 -59.166 -9 -83.499s17.5 -45.166 36.5 -62.499s41.333 -30.833 67 -40.5s52.834 -15.5 81.501 -17.5c0 -11.333 6.33301 -17.833 19 -19.5s20.667 3.16602 24 14.499v2.5v2.5c24 2 44.333 6 61 12
c57.333 21.333 102.666 60.833 135.999 118.5s50.666 118.834 51.999 183.501c1.33301 48 -10.167 92.5 -34.5 133.5s-56.666 73.333 -96.999 97s-83.5 35.5 -129.5 35.5zM221.999 255c6.66699 0 16.667 -1.33301 30 -4c-8 -89.333 -12 -161 -12 -215
c-31.333 3.33301 -61.833 15.333 -91.5 36s-48 45 -55 73s7.83301 56.333 44.5 85c23.333 16.667 51.333 25 84 25z" />
    <glyph glyph-name="E" unicode="E" horiz-adv-x="656" 
d="M338 554c-30.667 2 -66.835 -8.33008 -108.502 -30.9971s-72.167 -46 -91.5 -70c-8.66699 -11.333 -16.167 -22.5 -22.5 -33.5s-11.166 -22.833 -14.499 -35.5s-2.33301 -24.167 3 -34.5s15.333 -18.833 30 -25.5c14.667 -6 34 -10 58 -12
c-21.333 -12 -40.5 -24.333 -57.5 -37s-32.333 -27 -46 -43s-23.667 -32.333 -30 -49s-8.5 -35 -6.5 -55s8.66699 -40 20 -60c19.333 -31.333 47 -51.833 83 -61.5s73.167 -10.834 111.5 -3.50098s79.666 20.333 123.999 39s82 36.834 113 54.501s59.833 35.167 86.5 52.5
c6.66699 5.33301 9.5 12.166 8.5 20.499s-4.5 14.166 -10.5 17.499s-12.667 3 -20 -1c-68.667 -46 -134.667 -81.333 -198 -106c-32.667 -12.667 -68.334 -22.334 -107.001 -29.001c-15.333 -2.66699 -27.166 -4.5 -35.499 -5.5s-19 -1 -32 0s-24.5 4.16699 -34.5 9.5
c-21.333 10.667 -37.666 25.667 -48.999 45c-23.333 36.667 -17.333 74.334 18 113.001c14.667 18.667 39.334 39 74.001 61c30.667 21.333 64.667 38 102 50c16 3.33301 36.667 8.16602 62 14.499s40.666 9.83301 45.999 10.5c6.66699 2 11 6.5 13 13.5
s1.16699 13.5 -2.5 19.5s-9.16699 8.66699 -16.5 8c-0.666992 0 -1.33398 -0.333008 -2.00098 -1s-1.33398 -1 -2.00098 -1v2c-0.666992 0 -1.66699 -0.333008 -3 -1s-2.33301 -1 -3 -1c-4.66699 -0.666992 -19 -3.66699 -43 -9c-29.333 -6 -62.666 -11 -99.999 -15
c-3.33301 0 -8.66602 -0.666992 -15.999 -2s-13.833 -2.16602 -19.5 -2.49902s-12.334 -0.833008 -20.001 -1.5s-14.167 -0.333984 -19.5 0.999023s-10.5 3.16602 -15.5 5.49902s-8.83301 6 -11.5 11s-4 11.167 -4 18.5c0.666992 26 22.334 52 65.001 78
c44 26.667 81.333 37.334 112 32.001c23.333 -3.33301 33.666 -17 30.999 -41c-1.33301 -12 3.33398 -18.667 14.001 -20c12.667 -2 21.334 2.33301 26.001 13c0.666992 2 1 4.33301 1 7c6 58.667 -14 89 -60 91z" />
    <glyph glyph-name="F" unicode="F" horiz-adv-x="606" 
d="M190 602c-8 0 -13.6602 -4.66602 -16.9932 -13.999c-0.666992 -1.33301 -1.16699 -3.16602 -1.5 -5.49902s-0.833008 -4.16602 -1.5 -5.49902c-4 -0.666992 -19.333 -3 -46 -7l-61 -9c-8 -2 -12.833 -6.5 -14.5 -13.5s0.166016 -13.5 5.49902 -19.5s12.333 -8 21 -6
c28 5.33301 56 10 84 14c-6 -21.333 -20 -75.666 -42 -162.999c-5.33301 -0.666992 -14 -1.83398 -26 -3.50098s-20.667 -2.83398 -26 -3.50098c-12.667 -1.33301 -17.667 -8.33301 -15 -21c2 -12 9.33301 -18 22 -18c0.666992 0 1.66699 0.333008 3 1
c3.33301 0.666992 8.66602 1.16699 15.999 1.5s12.666 0.833008 15.999 1.5c-6.66699 -31.333 -14.334 -78 -23.001 -140l-3.5 -25.5c-1.66699 -12.333 -3 -21.833 -4 -28.5s-1.83301 -16 -2.5 -28s-0.666992 -21.833 0 -29.5s2.16699 -16.5 4.5 -26.5
s5.66602 -18 9.99902 -24s10.166 -12 17.499 -18s16 -10.333 26 -13c8 -2 14.5 0 19.5 6s6.83301 12.667 5.5 20s-6 12 -14 14c-16 4.66699 -25.667 22.667 -29 54s-2 67.166 4 107.499s15 85.833 27 136.5c75.333 7.33301 154.666 11 237.999 11
c8.66699 0 14.667 3.66699 18 11s3.33301 14.5 0 21.5s-9.33301 10.5 -18 10.5c-58 0 -133.333 -4 -226 -12c15.333 63.333 30.333 117.666 45 162.999c119.333 14 233.666 19.333 342.999 16c8.66699 0 14.667 3.33301 18 10s3.33301 13.5 0 20.5s-9.33301 10.5 -18 10.5
c-109.333 3.33301 -219.666 -2 -330.999 -16c0 6 -2.5 10.833 -7.5 14.5s-10.5 5.5 -16.5 5.5z" />
    <glyph glyph-name="G" unicode="G" horiz-adv-x="544" 
d="M327 619c-16 0 -35.3271 -5.66797 -57.9941 -17.001c-32 -17.333 -60.333 -39.666 -85 -66.999s-45 -57.833 -61 -91.5s-28.833 -67.334 -38.5 -101.001s-17.167 -69.167 -22.5 -106.5c-21.333 -158.667 20 -237.334 124 -236.001c22 0.666992 43.667 5.66699 65 15
s41.666 22.833 60.999 40.5s36.5 35.5 51.5 53.5s31.167 39.333 48.5 64c-8.66699 -41.333 -14.667 -80.666 -18 -117.999c0 -1.33301 -1 -10.5 -3 -27.5s-3 -29 -3 -36s0.333008 -17.167 1 -30.5s3 -24.333 7 -33s9.66699 -16 17 -22c4.66699 -2.66699 10 -3.16699 16 -1.5
s10.333 4.83398 13 9.50098c0.666992 0 1 0.833008 1 2.5s0.333008 2.83398 1 3.50098c2.66699 4 3.33398 9 2.00098 15s-4.33301 10.333 -9 13c-0.666992 0 -1.16699 0.333008 -1.5 1s-0.833008 1 -1.5 1h-5c-6.66699 20 -1.33398 81.667 15.999 185
c8 47.333 24.667 102.333 50 165c5.33301 11.333 2.33301 19 -9 23s-20.666 1.66699 -27.999 -7l-47 -68.5c-21.333 -31.667 -40.833 -59.167 -58.5 -82.5s-35.5 -44.333 -53.5 -63c-24.667 -24.667 -44 -40.334 -58 -47.001c-22.667 -13.333 -48.334 -16 -77.001 -8
s-49 24.333 -61 49c-2 4 -3.66699 8.66699 -5 14s-2.33301 11.166 -3 17.499s-1 12.5 -1 18.5s0.333008 13.167 1 21.5s1.33398 15.166 2.00098 20.499l2.5 21c1 8.66699 1.83301 14.834 2.5 18.501l3 16.5c1.33301 7.33301 2 11.333 2 12c16 95.333 46 172 90 230
c19.333 24.667 37.833 43.334 55.5 56.001s38.5 17.667 62.5 15c7.33301 -0.666992 13.166 -1.16699 17.499 -1.5s8.16602 -1.33301 11.499 -3l7 -3.5c1.33301 -0.666992 2.66602 -2.66699 3.99902 -6s2.16602 -6 2.49902 -8s0.833008 -6.16699 1.5 -12.5
s1 -11.166 1 -14.499c3.33301 -22 4 -46.667 2 -74c-0.666992 -8.66699 2.33301 -14.667 9 -18s13.667 -3.33301 21 0s11.333 9.33301 12 18c2 18.667 2 38.667 0 60s-5.33301 41.166 -10 59.499s-12.834 33.833 -24.501 46.5s-25.834 19 -42.501 19z" />
    <glyph glyph-name="H" unicode="H" horiz-adv-x="547" 
d="M250 602c-8 0 -12.998 -4.66992 -14.998 -14.0029c-24 -145.333 -39 -238 -45 -278c-46.667 6 -85.334 15.667 -116.001 29c-12 4.66699 -21.667 1.33398 -29 -9.99902c-6.66699 -12 -4.33398 -21 6.99902 -27c43.333 -18.667 87.666 -30.667 132.999 -36
c-6 -46 -10.5 -90.5 -13.5 -133.5s-4.16699 -85.167 -3.5 -126.5c0 -7.33301 2.83301 -13 8.5 -17s11.834 -5.33301 18.501 -4c7.33301 0.666992 12.666 2.33398 15.999 5.00098s6.66602 7.33398 9.99902 14.001c5.33301 12.667 2 22.334 -10 29.001
c0 70 5.33301 146.667 16 230c53.333 -2 102.666 8.33301 147.999 31c1.33301 0.666992 9.33301 6 24 16l-6 -31.5c-2.66699 -14.333 -4.66699 -24.5 -6 -30.5c-5.33301 -31.333 -8.66602 -52.333 -9.99902 -63s-3.16602 -28.334 -5.49902 -53.001
s-2.16602 -46.167 0.500977 -64.5s7 -36.833 13 -55.5c3.33301 -10 10.333 -15 21 -15s17.667 5 21 15c0.666992 3.33301 2.5 8.5 5.5 15.5s4.83301 12.167 5.5 15.5c3.33301 8 2.5 14.5 -2.5 19.5s-11.167 6.83301 -18.5 5.5c-2 14 -3 29 -3 45s0.5 30.167 1.5 42.5
s3 27.5 6 45.5s5.5 32.167 7.5 42.5s5 24.833 9 43.5c0.666992 6 1.33398 10.333 2.00098 13c2 7.33301 4.33301 19 7 35s5 28 7 36c18 27.333 31.333 56 40 86s10.667 56.667 6 80c-2 8.66699 -6 14 -12 16c-4 6.66699 -10.667 9.66699 -20 9s-15.333 -5.66699 -18 -15
c-4 -16.667 -9.83301 -42.667 -17.5 -78s-13.5 -61.333 -17.5 -78c-20 -36 -50.667 -59.667 -92 -71c-32.667 -9.33301 -62.334 -14 -89.001 -14l21 135c9.33301 60 16 105 20 135c2 8 0.166992 14.667 -5.5 20s-12.167 7.33301 -19.5 6zM184.002 25.9971z" />
    <glyph glyph-name="I" unicode="I" horiz-adv-x="191" 
d="M96 596c-5.33301 0 -10.167 -1.83301 -14.5 -5.5s-5.83301 -8.5 -4.5 -14.5c3.33301 -50.667 5 -101.667 5 -153s-0.666992 -92 -2 -122s-4 -77.5 -8 -142.5s-7 -112.5 -9 -142.5c-0.666992 -8.66699 2.33301 -14.667 9 -18s13.667 -3.33301 21 0s11 9.33301 11 18
l9.5 142.5c4.33301 65 7.16602 112.5 8.49902 142.5s1.83301 70.667 1.5 122s-2.16602 102.333 -5.49902 153c-2 13.333 -9.33301 20 -22 20z" />
    <glyph glyph-name="J" unicode="J" horiz-adv-x="532" 
d="M476 596l-8.99805 0.00292969c-42 -16.667 -67.333 -26.334 -76 -29.001l-20 -6l-20 -6c-2.66699 -0.666992 -11.334 -1.16699 -26.001 -1.5s-23.334 -1.83301 -26.001 -4.5c9.33301 8.66699 9 18 -1 28s-19.667 10.667 -29 2
c-13.333 -15.333 -15.666 -30.333 -6.99902 -45s22.334 -23 41.001 -25c21.333 -1.33301 46 1.66699 74 9c-20 -176.667 -38.667 -316.667 -56 -420c-2.66699 -15.333 -7.16699 -27.666 -13.5 -36.999s-14.333 -14.666 -24 -15.999s-19.167 -1.5 -28.5 -0.5
s-20.333 4.83301 -33 11.5s-23.334 12.5 -32.001 17.5s-18.667 11.5 -30 19.5c-10.667 7.33301 -21.334 15.833 -32.001 25.5s-20.667 21 -30 34s-10.166 24 -2.49902 33s25.167 14.5 52.5 16.5c8.66699 0 14.667 3.66699 18 11s3.33301 14.333 0 21s-9.33301 9.66699 -18 9
c-30.667 -2 -56 -11.167 -76 -27.5s-26 -38.833 -18 -67.5c4 -13.333 11.167 -26.333 21.5 -39s20.666 -23.334 30.999 -32.001s24.333 -17.834 42 -27.501s31 -16.5 40 -20.5l39.5 -17c22 -8.66699 40.667 -13.334 56 -14.001s28.5 3.66602 39.5 12.999
s19.5 21.333 25.5 36s10.667 33.334 14 56.001c15.333 94 34 237.333 56 430c22.667 9.33301 42 16.666 58 21.999c10.667 4 15.5 11.5 14.5 22.5s-6.16699 17.167 -15.5 18.5z" />
    <glyph glyph-name="K" unicode="K" horiz-adv-x="628" 
d="M201 586c-9.33301 0 -14.998 -4.99902 -16.998 -14.999c-6 -35.333 -17.167 -91.5 -33.5 -168.5s-27.833 -135.833 -34.5 -176.5c-13.333 3.33301 -21.666 15 -24.999 35c-2 8.66699 -6.66699 13.667 -14 15s-14.166 -0.666992 -20.499 -6s-8.83301 -12.333 -7.5 -21
c7.33301 -36.667 27.333 -58.334 60 -65.001c-13.333 -94 -17.333 -176 -12 -246c0.666992 -8.66699 4.66699 -14.834 12 -18.501s14.5 -3.66699 21.5 0s10.167 9.83398 9.5 18.501c-6 79.333 -2 162 12 248c32.667 8 64.334 23 95.001 45
c1.33301 0.666992 5.33301 1.83398 12 3.50098s11 2.83398 13 3.50098s5.83301 1.66699 11.5 3s9.66699 1.83301 12 1.5s6 -0.333008 11 0s8.83301 0 11.5 -1s6 -2.16699 10 -3.5s7.5 -3.33301 10.5 -6s5.83301 -5.66699 8.5 -9c9.33301 -10 20 -27.167 32 -51.5
s20.333 -40.5 25 -48.5c40 -57.333 86 -97 138 -119c8 -4 15.5 -3.5 22.5 1.5s10.333 11 10 18s-4.16602 12.833 -11.499 17.5c-24 10.667 -45.5 24.834 -64.5 42.501s-33.5 34.167 -43.5 49.5s-22.667 36.166 -38 62.499s-28 46.833 -38 61.5c-14 22 -35 33 -63 33
c17.333 17.333 41.666 43.666 72.999 78.999s60.666 66.166 87.999 92.499s55.666 48.166 84.999 65.499c7.33301 5.33301 10.666 12.166 9.99902 20.499s-4.16699 14.166 -10.5 17.499s-13.5 3 -21.5 -1c-14 -8 -27.333 -16.833 -40 -26.5s-26 -21.167 -40 -34.5
s-24.667 -23.833 -32 -31.5l-36.5 -39c-17 -18.333 -27.833 -29.833 -32.5 -34.5c-12 -13.333 -26.667 -28.666 -44 -45.999s-41.833 -39.166 -73.5 -65.499s-58.5 -44.166 -80.5 -53.499c6.66699 36.667 17.667 91.334 33 164.001s26 126.667 32 162
c1.33301 8 -0.833984 14.667 -6.50098 20s-11.834 7.66602 -18.501 6.99902z" />
    <glyph glyph-name="L" unicode="L" horiz-adv-x="526" 
d="M154 609c-4 0 -7.66895 -1.49707 -11.002 -4.49707s-5.33301 -7.16699 -6 -12.5c-5.33301 -38 -14 -95.333 -26 -172s-20.667 -134 -26 -172c-1.33301 -9.33301 -4.66602 -25.833 -9.99902 -49.5l-14 -62.5c-4 -18 -6 -37.5 -6 -58.5s3.66699 -37.5 11 -49.5
c8.66699 -16 22.334 -25.333 41.001 -28s35.334 0 50.001 8c25.333 10 55.666 25.5 90.999 46.5s69 38.833 101 53.5s65 23 99 25c8.66699 0.666992 14.834 4.83398 18.501 12.501s3.66699 15.167 0 22.5s-9.83398 10.666 -18.501 9.99902
c-53.333 -4 -100.333 -15.667 -141 -35c-10 -4.66699 -20.167 -9.83398 -30.5 -15.501s-21.5 -12.334 -33.5 -20.001s-21.667 -13.5 -29 -17.5c-12.667 -8 -28.334 -17 -47.001 -27c-8.66699 -4.66699 -16.5 -7.83398 -23.5 -9.50098s-12.667 -1.5 -17 0.5s-8 4.66699 -11 8
s-5.16699 8 -6.5 14s-2.33301 11.667 -3 17s-0.833984 12 -0.500977 20s0.833008 14.5 1.5 19.5s1.33398 11.333 2.00098 19s1.33398 12.5 2.00098 14.5c2 22 7.33301 51.833 16 89.5s13.667 60.167 15 67.5c4.66699 28.667 11.167 71.5 19.5 128.5
s14.833 99.833 19.5 128.5c1.33301 8 -1.16699 15.167 -7.5 21.5s-12.833 8.83301 -19.5 7.5z" />
    <glyph glyph-name="M" unicode="M" horiz-adv-x="583" 
d="M452 589h-3.00098c-6 0 -11 -4 -15 -12l-175 -286v9c-0.666992 20 -1.66699 35.5 -3 46.5s-5 24.5 -11 40.5s-14.667 30.667 -26 44c-6 6.66699 -13.167 8.66699 -21.5 6s-13.833 -8 -16.5 -16c-11.333 -31.333 -30.666 -92.666 -57.999 -183.999s-51.333 -161 -72 -209
c-6 -13.333 -2.33301 -24 11 -32c12.667 -6.66699 22.334 -4 29.001 8c14.667 34.667 28.5 71.334 41.5 110.001s26.667 82.667 41 132s25.833 86.333 34.5 111c4 -14.667 6.33301 -38.334 7 -71.001s2.33398 -55.334 5.00098 -68.001c2.66699 -10 9.16699 -15.333 19.5 -16
s18.166 3 23.499 11l184 298c4 -16.667 7 -35.334 9 -56.001s3.16699 -37.834 3.5 -51.501s0.666016 -33.5 0.999023 -59.5s0.833008 -44 1.5 -54c0 -30 0.666992 -74.667 2 -134l3 -134c0 -9.33301 3.66699 -16 11 -20s14.833 -4 22.5 0s11.5 10.667 11.5 20l-5 301
c-0.666992 5.33301 -1.16699 19 -1.5 41s-0.5 36.833 -0.5 44.5s-0.666992 20.834 -2 39.501s-3 33.334 -5 44.001s-5 23.5 -9 38.5s-8.66699 28.833 -14 41.5c-2 4.66699 -5.33301 8.66699 -10 12s-9 5 -13 5z" />
    <glyph glyph-name="N" unicode="N" 
d="M343 590c-6 1.33301 -11.8271 -0.498047 -17.4941 -5.49805s-7.5 -11.167 -5.5 -18.5c8 -47.333 12 -99.166 12 -155.499s-1.16699 -115.833 -3.5 -178.5s-2.5 -114.667 -0.5 -156c-7.33301 13.333 -13.333 29 -18 47s-8.83398 37.5 -12.501 58.5
s-6.16699 34.167 -7.5 39.5c-14 59.333 -28.667 115 -44 167c-13.333 42.667 -29.666 78.834 -48.999 108.501s-45.666 52.834 -78.999 69.501c-6.66699 2.66699 -12.834 2.66699 -18.501 0s-9.16699 -6.66699 -10.5 -12c-6.66699 -4 -10 -9.66699 -10 -17
c-4 -68 -7 -169.333 -9 -304c-0.666992 -7.33301 -1.83398 -27 -3.50098 -59s-2.33398 -55.667 -2.00098 -71s2.66602 -34.833 6.99902 -58.5s11.5 -43.5 21.5 -59.5c5.33301 -7.33301 11.5 -11 18.5 -11s12.833 3.16699 17.5 9.5s5 13.166 1 20.499
c-9.33301 16 -15.833 36.667 -19.5 62s-5.33398 47.666 -5.00098 66.999s1.5 44.833 3.5 76.5s3 52.167 3 61.5c0 16 0.333008 41.667 1 77s1.33398 66.333 2.00098 93s1.66699 52.334 3 77.001c18 -13.333 33.833 -29.5 47.5 -48.5s25.167 -41.333 34.5 -67
s16.666 -47.834 21.999 -66.501s11.333 -43.834 18 -75.501s11.667 -53.834 15 -66.501c2 -8 4.83301 -21.167 8.5 -39.5s7 -33.166 10 -44.499s7.16699 -24.333 12.5 -39s12.333 -27.167 21 -37.5s19 -18.833 31 -25.5c5.33301 -5.33301 11.666 -8 18.999 -8
c7.33301 -0.666992 12.666 2.66602 15.999 9.99902s3.33301 14.666 0 21.999c-4.66699 50 -5.66699 140.667 -3 272s-1.33301 222.333 -12 273c-2 8.66699 -7 13 -15 13z" />
    <glyph glyph-name="O" unicode="O" horiz-adv-x="406" 
d="M227 592l-12.001 0.000976562c-8 0 -18 -2 -30 -6c-7.33301 -3.33301 -14.166 -7.5 -20.499 -12.5s-11.833 -9.83301 -16.5 -14.5s-9.33398 -11.167 -14.001 -19.5s-8.16699 -15 -10.5 -20s-5.16602 -12.5 -8.49902 -22.5s-5.66602 -17.167 -6.99902 -21.5
s-3.33301 -12 -6 -23s-4.33398 -17.5 -5.00098 -19.5c-24 -94.667 -37 -182 -39 -262c-0.666992 -36 2.5 -67.167 9.5 -93.5s22.833 -47.5 47.5 -63.5c20 -12.667 41.5 -18.5 64.5 -17.5s44.5 8.16699 64.5 21.5c16 11.333 30.167 27.166 42.5 47.499s20.833 38.333 25.5 54
s10 36.167 16 61.5c20 86 24 173.333 12 262c6.66699 52 -6.33301 91.667 -39 119c-19.333 18 -44 28 -74 30zM229.999 559.001c14.667 0 26.502 -3.99707 35.502 -11.9971s17.5 -21 25.5 -39c6.66699 -14.667 10 -32.334 10 -53.001c-1.33301 -3.33301 -2 -6.33301 -2 -9
c0 -0.666992 0.166992 -1.83398 0.5 -3.50098s0.5 -2.83398 0.5 -3.50098v-2c-1.33301 -8.66699 -5.33301 -22.334 -12 -41.001c-2 -5.33301 -1 -10.333 3 -15s8.66699 -7.33398 14 -8.00098c3.33301 -52.667 -1.33398 -109 -14.001 -169
c-10.667 -53.333 -22.667 -92 -36 -116l-11.5 -14.5c-5 -6.33301 -8.5 -11.166 -10.5 -14.499c-22.667 -16.667 -44.167 -24 -64.5 -22s-38.166 11.333 -53.499 28c-10.667 9.33301 -16 37 -16 83c-1.33301 68.667 8.66699 151.334 30 248.001c11.333 46 20.333 78 27 96
l3 6c6 13.333 10.667 23 14 29s8.66602 12 15.999 18s16.666 10 27.999 12c1.33301 0 3.5 0.333008 6.5 1s5.16699 1 6.5 1z" />
    <glyph glyph-name="P" unicode="P" horiz-adv-x="561" 
d="M262 602c-56.667 -0.666992 -105.501 -16.4951 -146.501 -47.4951s-65.167 -76.167 -72.5 -135.5c-1.33301 -12 3.66699 -18.667 15 -20c12.667 -1.33301 21 4 25 16c0 1.33301 0.333008 2.66602 1 3.99902c3.33301 32 16 59.833 38 83.5s48.5 40.167 79.5 49.5
s62.833 13.666 95.5 12.999s63.667 -8.66699 93 -24s51.333 -36.333 66 -63c22 -38 25 -76.833 9 -116.5s-44.333 -64.834 -85 -75.501c-34.667 -8.66699 -65.334 -10.334 -92.001 -5.00098c0.666992 11.333 1.33398 28.833 2.00098 52.5s1.33398 41.167 2.00098 52.5
c10 -3.33301 17.333 0.333984 22 11.001s2.33398 19.334 -6.99902 26.001c-7.33301 4.66699 -12 7.33398 -14 8.00098v47c0 8.66699 -3.33301 14.667 -10 18s-13.334 3.33301 -20.001 0s-10 -9.33301 -10 -18c0 -4 -0.166992 -10.5 -0.5 -19.5s-0.5 -15.5 -0.5 -19.5
c-22 -0.666992 -41.5 -7.66699 -58.5 -21s-27.667 -30 -32 -50s0.5 -42 14.5 -66c14 -20.667 35.333 -37.667 64 -51c-4 -98.667 0 -178.334 12 -239.001c2 -8.66699 6.5 -13.834 13.5 -15.501s13.5 0.166016 19.5 5.49902s8.33301 12 7 20
c-3.33301 16 -5.66602 34.5 -6.99902 55.5s-2 37.167 -2 48.5s0.5 31.5 1.5 60.5s1.5 46.167 1.5 51.5c42 -7.33301 82.667 -3.33301 122 12s67 39.666 83 72.999c27.333 58 31.666 107.833 12.999 149.5s-50.167 74 -94.5 97s-92.833 33.833 -145.5 32.5h-2z
M247.999 398.005c0 -10.667 -0.832031 -27.5 -2.49902 -50.5s-2.83398 -40.833 -3.50098 -53.5c-8.66699 6 -15.667 12.667 -21 20c-6.66699 54 2.33301 82 27 84z" />
    <glyph glyph-name="Q" unicode="Q" horiz-adv-x="480" 
d="M240 590c-10 0 -20.002 -2.66992 -30.002 -8.00293c-40.667 -21.333 -80.667 -85.333 -120 -192c-32 -94 -41 -180.667 -27 -260c2.66699 -15.333 6.5 -29.833 11.5 -43.5s11.333 -26.667 19 -39s17.5 -22.666 29.5 -30.999s25.333 -13.833 40 -16.5
c27.333 -4.66699 57.333 5.33301 90 30c9.33301 -11.333 18.833 -21.5 28.5 -30.5s20.834 -17.833 33.501 -26.5s25 -15 37 -19s24.833 -5.33301 38.5 -4s26.834 6.33301 39.501 15c10 7.33301 11.667 16.666 5 27.999c-6 10.667 -13.667 12.334 -23 5.00098
c-20.667 -14 -42.667 -14.167 -66 -0.5s-44.666 32.834 -63.999 57.501c15.333 16.667 29.666 35.667 42.999 57c15.333 23.333 29.333 49.333 42 78s22.667 59.667 30 93s10.333 64.833 9 94.5s-9.5 57.334 -24.5 83.001s-37.167 45.167 -66.5 58.5
c-21.333 47.333 -46.333 71 -75 71zM234.998 535.997c13.333 0 24.3252 -6.66797 32.9922 -20.001c-1.33301 -5.33301 -1 -10.5 1 -15.5s5.66699 -8.5 11 -10.5h2c10 -24.667 16 -50 18 -76c2.66699 -36.667 -4 -90.334 -20 -161.001
c-1.33301 -7.33301 0.666992 -13.5 6 -18.5s11.333 -6.83301 18 -5.5s11 6 13 14c4.66699 22.667 8.33398 41.334 11.001 56.001s5.16699 32 7.5 52s3.33301 39 3 57s-2.16602 35.667 -5.49902 53c18 -18 29.333 -41.5 34 -70.5s3.33398 -58.833 -3.99902 -89.5
s-16.666 -59.5 -27.999 -86.5s-23.666 -51.5 -36.999 -73.5c-13.333 -20.667 -26.333 -39 -39 -55c-4.66699 6.66699 -10.667 16.667 -18 30l-7.5 17c-5 11.333 -9.16699 22 -12.5 32s-4.33301 16 -3 18c6 4.66699 7.83301 10.5 5.5 17.5s-6.66602 11.333 -12.999 13
s-12.5 0.5 -18.5 -3.5c-3.33301 -3.33301 -5.66602 -7 -6.99902 -11s-2.16602 -8 -2.49902 -12s0 -9 1 -15s1.83301 -10.5 2.5 -13.5s2 -7.66699 4 -14s3.33301 -10.166 4 -11.499c6.66699 -22.667 18.667 -47.334 36 -74.001c-20.667 -15.333 -40 -20.666 -58 -15.999
c-30.667 8 -52.334 29.667 -65.001 65c-10.667 32.667 -13.667 77.667 -9 135c6.66699 94 38.667 181 96 261c14.667 21.333 28.334 32 41.001 32z" />
    <glyph glyph-name="R" unicode="R" horiz-adv-x="563" 
d="M238 602c-27.333 0 -54.5029 -4.49707 -81.5029 -13.4971s-50.167 -20.833 -69.5 -35.5c-14.667 -12 -25.5 -25.833 -32.5 -41.5s-10.167 -32.667 -9.5 -51s2.33398 -35 5.00098 -50s7 -32.167 13 -51.5c2 -6.66699 6.33301 -10.667 13 -12s12.5 0 17.5 4
s6.5 9.33301 4.5 16c-6 20 -10 37.833 -12 53.5s-2.16699 32 -0.5 49s7.83398 31.833 18.501 44.5s26 23 46 31c66 27.333 119.333 28 160 2c28 -17.333 47.833 -44.666 59.5 -81.999s13.667 -75.5 6 -114.5s-23.5 -70.167 -47.5 -93.5
c-1.33301 0.666992 -2.66602 2 -3.99902 4s-2.66602 3.33301 -3.99902 4c-39.333 29.333 -69.333 48.666 -90 57.999c-3.33301 47.333 -8.33301 100.333 -15 159c-2 11.333 -9 17 -21 17c-11.333 0.666992 -16.666 -4.33301 -15.999 -15
c0 -0.666992 0.333008 -1.33398 1 -2.00098c5.33301 -42 10 -90.667 14 -146c-31.333 8.66699 -57 7 -77 -5c-20 -14.667 -29.167 -31.167 -27.5 -49.5s11.5 -35.166 29.5 -50.499c22.667 -18.667 50 -31.334 82 -38.001v-95v-10c-5.33301 -72 2 -107.333 22 -106
c4.66699 0 10 2 16 6c-1.33301 11.333 -0.833008 40.166 1.5 86.499s2.5 84.166 0.5 113.499c31.333 0 60.666 8 87.999 24c25.333 -24 55.666 -62.333 90.999 -115s56.666 -83.667 63.999 -93s15 -9 23 1c7.33301 8 8 16.333 2 25
c-5.33301 6.66699 -25.833 36.167 -61.5 88.5s-65.5 90.5 -89.5 114.5c30 28.667 48.5 68 55.5 118s0.833008 98 -18.5 144s-48.666 77.333 -87.999 94c-22 8.66699 -44.667 13 -68 13zM149.997 308.003c8 0 23.6689 -4.66699 47.002 -14c2 -28.667 3 -50 3 -64
c-0.666992 0 -1.83398 0.166992 -3.50098 0.5s-2.83398 0.5 -3.50098 0.5c-42.667 13.333 -65 32.333 -67 57c2 13.333 10 20 24 20zM232.999 278.003c19.333 -9.33301 41.002 -23.3281 65.002 -41.9951c-0.666992 -0.666992 -1.83398 -0.833984 -3.50098 -0.500977
s-2.83398 0.166016 -3.50098 -0.500977c-20.667 -7.33301 -39 -11 -55 -11c-0.666992 3.33301 -1 11.666 -1 24.999c0 3.33301 -0.333008 8.16602 -1 14.499s-1 11.166 -1 14.499z" />
    <glyph glyph-name="S" unicode="S" horiz-adv-x="404" 
d="M233 594c-25.333 -0.666992 -47.5039 -9.00391 -66.5039 -25.0039s-31.167 -39 -36.5 -69c-4 -21.333 -4.33301 -42.666 -1 -63.999s10.666 -43.666 21.999 -66.999s21.333 -41.833 30 -55.5l37 -57.5l29.5 -39.5c17.667 -23.667 30.834 -43.5 39.501 -59.5
s13.667 -31.667 15 -47c2.66699 -19.333 -0.166016 -35.166 -8.49902 -47.499s-19.833 -20.333 -34.5 -24s-29.167 -5.5 -43.5 -5.5s-27.833 1.66699 -40.5 5c-20 4.66699 -38.833 16.167 -56.5 34.5s-29 38.333 -34 60s0.833008 42.167 17.5 61.5
c4.66699 5.33301 6.33398 11.333 5.00098 18s-4.33301 11.167 -9 13.5s-9.66699 1.5 -15 -2.5c-27.333 -24 -37.166 -56.333 -29.499 -97s25.834 -71.667 54.501 -93c20 -14.667 43 -25 69 -31s52 -6 78 0s47 18.667 63 38c6.66699 8 11.5 17.167 14.5 27.5s4.5 20 4.5 29
s-1.83301 19.5 -5.5 31.5s-7.16699 22 -10.5 30s-8.83301 18.333 -16.5 31s-13.667 21.834 -18 27.501s-10.833 14.667 -19.5 27s-14 19.833 -16 22.5c-14.667 21.333 -26 38.333 -34 51s-17 29.167 -27 49.5s-17.333 39.5 -22 57.5c-3.33301 18 -5.5 36.333 -6.5 55
s3.66699 36 14 52s25.5 26 45.5 30c31.333 5.33301 56 -3.16699 74 -25.5s21.667 -48.5 11 -78.5c-2 -6 -0.833008 -11 3.5 -15s9.5 -5.33301 15.5 -4s10 5 12 11c16 43.333 12.167 78.5 -11.5 105.5s-54.5 40.167 -92.5 39.5z" />
    <glyph glyph-name="T" unicode="T" horiz-adv-x="618" 
d="M297 617c-8.66699 0 -14.0039 -4.33398 -16.0039 -13.001c-0.666992 -3.33301 -1.16699 -8.66602 -1.5 -15.999s-0.833008 -12.666 -1.5 -15.999c-77.333 -1.33301 -151.333 -7.66602 -222 -18.999c-7.33301 -1.33301 -11.666 -6.5 -12.999 -15.5
s1.66699 -15.167 9 -18.5c36 -15.333 71.333 -27 106 -35c7.33301 -1.33301 13.333 0.5 18 5.5s6.33398 10.833 5.00098 17.5s-5.66602 10.667 -12.999 12c-3.33301 1.33301 -8.5 2.66602 -15.5 3.99902s-12.5 2.66602 -16.5 3.99902c22.667 2.66699 67.667 5.66699 135 9
c-8 -54.667 -14 -99.834 -18 -135.501s-7 -78 -9 -127s0.666992 -95.167 8 -138.5s19.333 -84.333 36 -123c4 -11.333 12.333 -15 25 -11c11.333 3.33301 14.666 10.333 9.99902 21c-16 38 -27.5 78.333 -34.5 121s-9.66699 88 -8 136s4.66699 89.833 9 125.5
s10.5 79.834 18.5 132.501c76.667 0 157.667 -7 243 -21c11.333 -2 19 2.66699 23 14c2 11.333 -2.33301 18.333 -13 21c-77.333 14 -159.333 21 -246 21c0 2.66699 0.333008 6.5 1 11.5s1.33398 8.5 2.00098 10.5c0.666992 7.33301 -1.16602 13 -5.49902 17s-9.5 6 -15.5 6
z" />
    <glyph glyph-name="U" unicode="U" horiz-adv-x="491" 
d="M154 577c-8 0 -13.999 -4.99902 -17.999 -14.999c-35.333 -116 -59.666 -254.333 -72.999 -415c-2.66699 -12.667 -3.66699 -29.167 -3 -49.5s2.33398 -40 5.00098 -59s9.5 -36 20.5 -51s25.5 -23.833 43.5 -26.5c13.333 -2 27.666 1.33301 42.999 10
s28.666 18.334 39.999 29.001s24.166 25.667 38.499 45s24.5 33.666 30.5 42.999l24 38c12 19.333 28.333 51.666 49 96.999c-2 -37.333 -3 -65 -3 -83c0 -4.66699 -0.333008 -13 -1 -25s-1 -22 -1 -30s0.666992 -17.667 2 -29s3.66602 -20.333 6.99902 -27
s8.5 -12.667 15.5 -18s15.5 -8.33301 25.5 -9c8.66699 -0.666992 14.834 2.5 18.501 9.5s3.66699 14.167 0 21.5s-9.83398 11.333 -18.501 12c-4 0 -6.66699 7.33301 -8 22s-1.33301 34.334 0 59.001s3.33301 50.834 6 78.501s6 57.5 10 89.5l10.5 83.5
c3 23.667 6.16699 46.5 9.5 68.5c2 6 4.66699 15.833 8 29.5s5.66602 23.834 6.99902 30.501c2 8.66699 0 15.667 -6 21s-12.833 7.16602 -20.5 5.49902s-12.5 -6.5 -14.5 -14.5c0 -0.666992 -0.333008 -1.66699 -1 -3s-1 -2.33301 -1 -3c-4 -4 -6.66699 -8 -8 -12l-12 -63
c-17.333 -68 -35 -124.333 -53 -169c-9.33301 -24 -17.833 -44.333 -25.5 -61s-18.334 -37.834 -32.001 -63.501s-28.167 -47.5 -43.5 -65.5s-31 -30.667 -47 -38c-54 -26.667 -78.333 6 -73 98c0.666992 9.33301 5.33398 47.666 14.001 114.999v4
c16.667 123.333 36.334 221.333 59.001 294c2.66699 7.33301 1.33398 13.5 -3.99902 18.5s-12 7.5 -20 7.5z" />
    <glyph glyph-name="V" unicode="V" horiz-adv-x="419" 
d="M354 604c-8.66699 0 -15.001 -4.99707 -19.001 -14.9971c-10.667 -36.667 -21.667 -80.5 -33 -131.5s-22.333 -94.833 -33 -131.5c-4 -12.667 -11.167 -40.167 -21.5 -82.5s-21.166 -78.333 -32.499 -108s-25.666 -55.5 -42.999 -77.5c-34.667 175.333 -62 344 -82 506
c-2 12.667 -9.66699 19.667 -23 21c-12 0 -18.667 -5 -20 -15v-6c22.667 -181.333 54 -365.333 94 -552c1.33301 -8 5.66602 -12.833 12.999 -14.5s14 -0.166992 20 4.5c17.333 14 32.5 32.333 45.5 55s22.5 42.167 28.5 58.5s13.333 40.666 22 72.999
s14.667 53.833 18 64.5c13.333 43.333 28 97.666 44 162.999s30.667 119.666 44 162.999c2.66699 7.33301 1.5 13.333 -3.5 18s-11.167 7 -18.5 7z" />
    <glyph glyph-name="W" unicode="W" horiz-adv-x="569" 
d="M504 590c-10 0 -16.6602 -4.6748 -19.9932 -14.0078c-13.333 -40 -28.5 -98.5 -45.5 -175.5s-30.5 -132.167 -40.5 -165.5c-0.666992 -2.66699 -2.5 -9 -5.5 -19l-8.5 -27.5l-10 -30.5c-4 -12 -8 -22.667 -12 -32s-8.5 -18.166 -13.5 -26.499
s-10.167 -14.666 -15.5 -18.999s-10.666 -6.16602 -15.999 -5.49902c-4.66699 0 -8.33398 1.83301 -11.001 5.5s-4.33398 8.66699 -5.00098 15s-1 12.333 -1 18s0.333008 12.334 1 20.001s1 12.834 1 15.501c-0.666992 12 -1.33398 29.333 -2.00098 52
s-1.33398 40 -2.00098 52c0 12.667 -5.83301 19.834 -17.5 21.501s-19.5 -3.5 -23.5 -15.5c-1.33301 -2.66699 -4.66602 -11.334 -9.99902 -26.001l-10.5 -28.5l-9.5 -25c-4.66699 -12.333 -8.5 -21.666 -11.5 -27.999l-11.5 -24.5
c-4.66699 -10 -9.16699 -19.167 -13.5 -27.5s-8.83301 -16.5 -13.5 -24.5c-2 -3.33301 -5.16699 -9.5 -9.5 -18.5s-8.33301 -16.5 -12 -22.5s-7.83398 -11.667 -12.501 -17s-9.83398 -7.83301 -15.501 -7.5s-11.5 3.83301 -17.5 10.5c-3.33301 9.33301 -4.83301 20 -4.5 32
s1.5 28.5 3.5 49.5s3 33.167 3 36.5v102c0 47.333 0.166992 84.5 0.5 111.5s2.16602 60 5.49902 99s8.66602 74.5 15.999 106.5c1.33301 8.66699 -1 15.667 -7 21s-12.833 7.33301 -20.5 6s-12.5 -6.33301 -14.5 -15c-3.33301 -16.667 -6.33301 -34.5 -9 -53.5
s-4.66699 -35.5 -6 -49.5s-2.33301 -32.167 -3 -54.5s-1.16699 -38.666 -1.5 -48.999s-0.666016 -28.666 -0.999023 -54.999s-0.5 -43.5 -0.5 -51.5l-2 -185c0 -4 -0.333008 -11.667 -1 -23s-1 -20.666 -1 -27.999s0.833008 -15.833 2.5 -25.5s4.83398 -17.5 9.50098 -23.5
c8.66699 -11.333 18.167 -18 28.5 -20s20.666 0.666992 30.999 8s20.666 17 30.999 29s20.833 27 31.5 45s20.167 35.333 28.5 52s16.833 35 25.5 55c4 -93.333 19.667 -140.333 47 -141c13.333 0 29.666 10.333 48.999 31c16 18 31 42 45 72s24.5 56 31.5 78
s14.833 49.667 23.5 83c7.33301 25.333 18.5 72.666 33.5 141.999s28.5 122.333 40.5 159c2.66699 8 1.66699 14.333 -3 19s-10.667 7 -18 7z" />
    <glyph glyph-name="X" unicode="X" horiz-adv-x="548" 
d="M484 588c-5.33301 0 -10.668 -3.00293 -16.001 -9.00293c-22 -36.667 -47.833 -73.5 -77.5 -110.5s-64.667 -78 -105 -123s-70.166 -79.167 -89.499 -102.5h-1c-44.667 94.667 -64 190 -58 286c0.666992 8.66699 -2.5 14.667 -9.5 18s-14 3.33301 -21 0
s-10.833 -9.33301 -11.5 -18c-6 -106.667 17.333 -213 70 -319l2 -4c-54 -69.333 -93.333 -134 -118 -194c-5.33301 -12.667 -2 -22.667 10 -30c11.333 -7.33301 19.333 -4.66602 24 8.00098c24 56 58.333 114.333 103 175c48 -101.333 94.667 -157 140 -167
c8.66699 -1.33301 15.667 0.833984 21 6.50098s7.16602 12.167 5.49902 19.5s-6.5 12 -14.5 14c-32.667 7.33301 -74 62 -124 164c22 26.667 53.333 62.834 94 108.501l110 128.5c32.667 40 60.667 79.333 84 118c4.66699 8 4.83398 15.167 0.500977 21.5
s-10.5 9.5 -18.5 9.5z" />
    <glyph glyph-name="Y" unicode="Y" horiz-adv-x="598" 
d="M531 588c-5.33301 0 -10.666 -2.00098 -15.999 -6.00098c-6.66699 -6 -12.834 -13.333 -18.501 -22s-11.834 -20.167 -18.501 -34.5s-11.334 -23.5 -14.001 -27.5c-22.667 -34.667 -47 -66.167 -73 -94.5s-56.167 -53.333 -90.5 -75s-66.5 -31.834 -96.5 -30.501
c-12 0.666992 -22.667 9.16699 -32 25.5s-19.666 39.833 -30.999 70.5l-26.5 71.5l-26.5 71.5c-3.33301 8.66699 -9.16602 13.834 -17.499 15.501s-15.333 -0.333008 -21 -6s-7.16699 -12.5 -4.5 -20.5c6.66699 -16.667 14.834 -40.834 24.501 -72.501
s19.167 -60.5 28.5 -86.5s19.666 -49 30.999 -69c24 -44 58 -61.333 102 -52c34.667 6.66699 72 24.667 112 54c-68 -101.333 -132 -188.666 -192 -261.999c-6 -6.66699 -7.33301 -14 -4 -22s8.5 -12.833 15.5 -14.5s13.5 0.5 19.5 6.5c70 86 132.333 169 187 249
c33.333 50.667 62 96.334 86 137.001c8.66699 14.667 17 31 25 49c6 8 18.333 26.333 37 55c0.666992 0.666992 1.16699 1 1.5 1s0.833008 0.333008 1.5 1c8 10.667 15 24.334 21 41.001v2c0.666992 0.666992 1.66699 1 3 1s2.33301 0.333008 3 1l3 2
c3.33301 3.33301 5.33301 7.66602 6 12.999s-0.333008 10 -3 14c0 0.666992 -0.5 1.16699 -1.5 1.5s-1.5 0.833008 -1.5 1.5c-4.66699 7.33301 -11 11 -19 11z" />
    <glyph glyph-name="Z" unicode="Z" horiz-adv-x="700" 
d="M438 580c-30.667 0.666992 -73.1641 -12.334 -127.497 -39.001s-99.5 -52.167 -135.5 -76.5s-63 -43.833 -81 -58.5c-6.66699 -6 -8.66699 -12.667 -6 -20s7.66699 -12 15 -14s14.666 -0.666992 21.999 4c64.667 51.333 127 90 187 116l12.5 6.5
c7 3.66699 13.667 7 20 10s13.833 6.33301 22.5 10s16.667 6.33398 24 8.00098s14.666 2.5 21.999 2.5s13.5 -1.66699 18.5 -5s8.5 -8.33301 10.5 -15c1.33301 -4 -2.66699 -12.333 -12 -25s-20.5 -26.834 -33.5 -42.501s-20.167 -24.167 -21.5 -25.5
c-90.667 -125.333 -197.667 -252 -321 -380c-8 -8 -9 -17 -3 -27s14.333 -13 25 -9c64 22.667 124 39.667 180 51s116.333 15.166 181 11.499s125 -17.167 181 -40.5c12.667 -5.33301 21.334 -1.66602 26.001 11.001c4.66699 13.333 1.33398 23.333 -9.99902 30l-4 2
c-136 57.333 -298 58.333 -486 3c91.333 100 157.333 176.667 198 230c35.333 44.667 68.666 89.667 99.999 135c1.33301 1.33301 6.66602 8.16602 15.999 20.499s16.166 21.833 20.499 28.5s8.33301 15.334 12 26.001s4.5 20.334 2.5 29.001c-6 28.667 -24.333 43 -55 43z
" />
    <glyph glyph-name="a" unicode="a" horiz-adv-x="465" 
d="M349 281c-10.667 0 -17.667 -5.00195 -21 -15.002c-0.666992 -1.33301 -1.33398 -3.66602 -2.00098 -6.99902s-1.33398 -6 -2.00098 -8c-6 2 -12 0 -18 -6c-11.333 13.333 -26.5 21.333 -45.5 24s-38.5 0 -58.5 -8c-38 -13.333 -70 -35.833 -96 -67.5
s-41.667 -67.5 -47 -107.5c-4 -12 -5.33301 -26.5 -4 -43.5s8 -29.167 20 -36.5c19.333 -11.333 49.333 -6 90 16c48.667 25.333 94.667 69 138 131c-3.33301 -20 -4 -40 -2 -60s5.83301 -38 11.5 -54s15.167 -29.667 28.5 -41s30 -18.333 50 -21
c8.66699 -2 15.834 0.333008 21.501 7s7.66699 13.834 6 21.501s-7.16699 12.5 -16.5 14.5c-17.333 2.66699 -30.666 11 -39.999 25s-14.833 30 -16.5 48s-1 38.167 2 60.5s6.5 41.5 10.5 57.5s8.33301 30.667 13 44c2.66699 7.33301 1.66699 13.5 -3 18.5s-11 7.5 -19 7.5z
M248 225.998c17.333 0 28.332 -8 32.999 -24c-14.667 -23.333 -33 -47 -55 -71c-16.667 -18.667 -31.667 -33.667 -45 -45c-35.333 -29.333 -57.666 -42 -66.999 -38c-14 6 -18.333 18.5 -13 37.5s13.5 37.833 24.5 56.5s20.167 31.334 27.5 38.001
c10 9.33301 24.5 19.166 43.5 29.499s36.167 15.833 51.5 16.5z" />
    <glyph glyph-name="b" unicode="b" horiz-adv-x="437" 
d="M112 559c-6 0 -10.835 -1.49805 -14.502 -4.49805s-5.16699 -7.5 -4.5 -13.5c12 -137.333 15 -292.333 9 -465c-8.66699 12.667 -13.667 29 -15 49c-0.666992 8.66699 -4.5 14.667 -11.5 18s-13.667 3.33301 -20 0s-9.16602 -9.33301 -8.49902 -18
c2 -40.667 18 -73 48 -97s65.667 -32.667 107 -26c47.333 7.33301 87 31.833 119 73.5s50.333 87.834 55 138.501c2 19.333 1.33301 38.166 -2 56.499s-9.16602 35 -17.499 50s-20.5 25.667 -36.5 32s-35 6.5 -57 0.5c-44 -12.667 -82.667 -49.334 -116 -110.001
c0 89.333 -4.66699 188.666 -14 297.999c-1.33301 12 -8.33301 18 -21 18zM294.998 316.002c13.333 -1.33301 23.668 -8.00098 31.001 -20.001s11 -24.833 11 -38.5s-0.333008 -26.167 -1 -37.5c-6 -60 -29 -108 -69 -144c-17.333 -14.667 -37.5 -24.834 -60.5 -30.501
s-44.5 -5.16699 -64.5 1.5c0.666992 15.333 1 39 1 71c0 0.666992 0.333008 1.33398 1 2.00098s1 1.33398 1 2.00098c7.33301 42.667 27.666 87.667 60.999 135c20.667 28.667 37.5 45.667 50.5 51s25.833 8 38.5 8z" />
    <glyph glyph-name="c" unicode="c" horiz-adv-x="351" 
d="M167 283c-12.667 0 -23.002 -1.66992 -31.002 -5.00293c-22 -8 -39.5 -26 -52.5 -54s-21.167 -56 -24.5 -84c-2 -12 -2.5 -25.5 -1.5 -40.5s3 -29 6 -42s9 -24.667 18 -35s20.5 -17.166 34.5 -20.499c27.333 -6.66699 56.666 -3.16699 87.999 10.5s59 31.834 83 54.501
c6.66699 6 8.66699 13 6 21s-7.66699 13 -15 15s-15 0.333008 -23 -5c-10.667 -10 -23.5 -19.333 -38.5 -28s-30.667 -15.667 -47 -21s-30.666 -4.66602 -42.999 2.00098s-19.833 20.334 -22.5 41.001c-3.33301 26.667 -1.33301 53 6 79c2 4.66699 5.16699 11.167 9.5 19.5
s7.16602 13.5 8.49902 15.5c10 22.667 23.333 35 40 37c6 0 9 -1.66699 9 -5c-1.33301 -13.333 4.33398 -22.333 17.001 -27s21 -1.33398 25 9.99902c0.666992 1.33301 1 3 1 5c2.66699 17.333 -1.16602 30.833 -11.499 40.5s-24.166 15.167 -41.499 16.5z" />
    <glyph glyph-name="d" unicode="d" horiz-adv-x="455" 
d="M381 577c-12.667 0 -20.002 -6.66406 -22.002 -19.9971c-2 -34.667 -6.5 -83.5 -13.5 -146.5l-14.5 -132.5c-16.667 18 -41.334 27.5 -74.001 28.5s-59 -5.16699 -79 -18.5c-34 -20 -62.5 -51 -85.5 -93s-36.167 -84.333 -39.5 -127c-2 -25.333 3.33301 -44.5 16 -57.5
s29 -18.833 49 -17.5s40 8.33301 60 21c28.667 17.333 54.334 39.666 77.001 66.999s45.334 60.333 68.001 99c-6.66699 -80 0 -137.333 20 -172c4 -6.66699 10 -10 18 -10h6c6 0 10.833 2.16699 14.5 6.5s5.5 9.16602 5.5 14.499s-1.83301 10.166 -5.5 14.499
s-8.5 6.5 -14.5 6.5c-2.66699 0 -4 8.5 -4 25.5s0.833008 40 2.5 69s3.83398 60.5 6.50098 94.5l8.5 106l8.5 99.5l7 80.5c2 24 3.33301 38 4 42c0.666992 6.66699 -1 11.667 -5 15s-8.66699 5 -14 5zM264.998 265.003c26 0 39.6641 -7.33301 40.9971 -22
c0 -0.666992 0.333008 -1.5 1 -2.5s1 -1.83301 1 -2.5c-20 -36.667 -38.333 -66.667 -55 -90c-10.667 -15.333 -18.834 -26.666 -24.501 -33.999s-15 -18.5 -28 -33.5s-25.667 -26.167 -38 -33.5s-24.166 -11.333 -35.499 -12c-11.333 0 -19.666 3 -24.999 9
s-7.66602 14.167 -6.99902 24.5s2.33398 21.166 5.00098 32.499s6.83398 23.166 12.501 35.499s10.667 22.5 15 30.5l11.5 21c22 34 41.667 55.667 59 65c4.66699 2.66699 13.667 5.33398 27 8.00098s26.666 4 39.999 4z" />
    <glyph glyph-name="e" unicode="e" horiz-adv-x="388" 
d="M248 294c-14 0 -30.335 -3.66602 -49.002 -10.999c-20.667 -8 -41 -22 -61 -42s-36.333 -42 -49 -66c-3.33301 6 -8.5 9.5 -15.5 10.5s-13 -0.833008 -18 -5.5s-6.16699 -10.334 -3.5 -17.001c8 -16.667 14 -27.334 18 -32.001c-8.66699 -33.333 -5.66699 -63.333 9 -90
c12 -22.667 29.333 -36.334 52 -41.001s46.334 -2 71.001 8s47.834 22.167 69.501 36.5s39.167 28.833 52.5 43.5c5.33301 6 6.66602 12.5 3.99902 19.5s-7 11.5 -13 13.5s-12 0.333008 -18 -5c-35.333 -39.333 -75.666 -63.666 -120.999 -72.999
c-26 -5.33301 -44.167 -2.16602 -54.5 9.50098s-13.833 28.5 -10.5 50.5c27.333 -11.333 57 -12 89 -2s57.667 28 77 54c12.667 16.667 20.667 35.5 24 56.5s0.333008 41.5 -9 61.5c-9.33301 14 -24 21 -44 21zM229.998 251.001c14.667 0 24.666 -4.33301 29.999 -13
c9.33301 -16 8 -32 -4 -48c-12.667 -22 -33.5 -38.667 -62.5 -50s-53.833 -11.333 -74.5 0c6.66699 20 14.334 36.667 23.001 50c16.667 23.333 37 41 61 53c2.66699 2 8 4 16 6c2 1.33301 5.66699 2 11 2z" />
    <glyph glyph-name="f" unicode="f" horiz-adv-x="382" 
d="M200 316c-26.667 -1.33301 -52.3311 -25.665 -76.998 -72.998c-15.333 -34.667 -29 -71.334 -41 -110.001h-7c-8 0.666992 -13.667 -2.83301 -17 -10.5s-3 -14.167 1 -19.5c0.666992 -2.66699 2.16699 -6.16699 4.5 -10.5s4.16602 -7.5 5.49902 -9.5
c-20.667 -99.333 -19 -188.333 5 -267c7.33301 -24 20.666 -46.667 39.999 -68s41.166 -35 65.499 -41s47.833 4 70.5 30c10.667 12.667 15.667 27.5 15 44.5s-3.5 31.5 -8.5 43.5s-12.167 26.667 -21.5 44l-121 219l192 -25c12 -1.33301 18.667 3.66699 20 15
c2 12 -2.66699 20.333 -14 25c-2 0.666992 -4 1 -6 1l-183 24l12 37c6.66699 20 16.667 43.333 30 70c7.33301 15.333 15.833 24.666 25.5 27.999s19.334 -1 29.001 -13s16.834 -30.667 21.501 -56c2 -8 6.66699 -12.667 14 -14s14 0.666992 20 6s8.33301 12 7 20
c-10.667 63.333 -32.334 99.333 -65.001 108c-4 1.33301 -9.66699 2 -17 2zM102.003 25.001l30.5 -54.499l30.5 -55.5c0.666992 -1.33301 6.33398 -10.5 17.001 -27.5s18 -29.5 22 -37.5c5.33301 -13.333 8 -28 8 -44s-4 -29 -12 -39
c-8.66699 -7.33301 -18.5 -10.333 -29.5 -9s-22 8.5 -33 21.5s-18.833 29.167 -23.5 48.5c-2.66699 7.33301 -5.33398 23.666 -8.00098 48.999c-7.33301 54.667 -8 104 -2 148z" />
    <glyph glyph-name="g" unicode="g" 
d="M372 292c-5.33301 0 -10.999 -2.99902 -16.999 -8.99902l-6 -12c-2.66699 -5.33301 -5 -9.33301 -7 -12c-4.66699 0 -8.66699 -1.33301 -12 -4c-10 10 -22.833 16.833 -38.5 20.5s-30.834 2.83398 -45.501 -2.49902c-34.667 -13.333 -63.667 -39.5 -87 -78.5
s-36.666 -78.5 -39.999 -118.5c-4 -12.667 -4.33301 -26.5 -1 -41.5s12 -25.167 26 -30.5c25.333 -8.66699 53.333 -1.66699 84 21c21.333 15.333 44.333 40.333 69 75v-86c0 -12.667 0.5 -31.834 1.5 -57.501s1.5 -45.167 1.5 -58.5c0 -8.66699 1 -20.834 3 -36.501
s3 -30 3 -43s-2 -24.833 -6 -35.5c-5.33301 -16 -16.833 -24.5 -34.5 -25.5s-32.834 4.16699 -45.501 15.5c-16.667 5.33301 -42 15.333 -76 30s-60.667 25 -80 31c-8 1.33301 -14.667 -0.833984 -20 -6.50098s-7.33301 -12.167 -6 -19.5s6 -12 14 -14
c54 -15.333 99 -32 135 -50l25 -14.5c12 -7 22.5 -12.5 31.5 -16.5s18.167 -6.33301 27.5 -7c36 -6 59 8.33301 69 43c6 20 9.16699 38.833 9.5 56.5s-0.833984 38.167 -3.50098 61.5s-4 43 -4 59c0 16.667 -0.5 44.5 -1.5 83.5s-0.833008 73.333 0.5 103
s5 56.834 11 81.501c2.66699 5.33301 8.5 16 17.5 32l20.5 37c4.66699 7.33301 4.83398 14 0.500977 20s-10.5 9 -18.5 9zM264.001 233.001c9.33301 -1.33301 21.334 -10.998 36.001 -28.998c-2.66699 -4.66699 -2 -10 2 -16c-31.333 -56 -60.666 -96.333 -87.999 -121
c-6.66699 -6 -12.834 -11 -18.501 -15s-11.334 -6.66699 -17.001 -8s-10.167 0.166992 -13.5 4.5s-5.33301 11.166 -6 20.499c0 17.333 4 36 12 56c9.33301 25.333 23.666 49.666 42.999 72.999l10.5 10c5 4.66699 8.83301 8 11.5 10
c8.66699 8.66699 16.334 13.667 23.001 15h5z" />
    <glyph glyph-name="h" unicode="h" horiz-adv-x="368" 
d="M131 584c-4 0 -7.67188 -1.33008 -11.0049 -3.99707s-5.33301 -6.33398 -6 -11.001c-18.667 -116 -31.334 -220 -38.001 -312c-0.666992 -10 -2.66699 -27.167 -6 -51.5s-5.83301 -44.666 -7.5 -60.999s-2 -35 -1 -56s3.83301 -39.5 8.5 -55.5v-2.5v-2.5
c-6 -10.667 -4.66699 -19.167 4 -25.5s17 -5.83301 25 1.5c6.66699 0.666992 11.834 3.83398 15.501 9.50098s3.83398 12.167 0.500977 19.5c5.33301 11.333 13.666 32.666 24.999 63.999s22.333 57 33 77s24 37.333 40 52l19 17c6 3.33301 10 1.66602 12 -5.00098
c6.66699 -14.667 10 -43 10 -85v-143c0.666992 -8.66699 4.5 -14.667 11.5 -18s13.833 -3.33301 20.5 0s9.66699 9.33301 9 18c0 5.33301 0.666992 20.833 2 46.5s2 50.834 2 75.501s-1.16699 50.167 -3.5 76.5s-8.16602 47.166 -17.499 62.499s-21.666 22 -36.999 20
c-12.667 -2 -24.5 -5.83301 -35.5 -11.5s-21 -13.834 -30 -24.501s-16.667 -20.667 -23 -30s-13.166 -22.5 -20.499 -39.5s-12.666 -29.833 -15.999 -38.5l-15 -41c0 24 2.83301 59.167 8.5 105.5s8.83398 71.833 9.50098 76.5c8 91.333 19.667 181.666 35 270.999
c2 7.33301 0.333008 13.333 -5 18s-11.333 7 -18 7z" />
    <glyph glyph-name="i" unicode="i" horiz-adv-x="191" 
d="M69 418l-4.00293 0.000976562c-4.66699 -2 -8.66699 -5.83301 -12 -11.5s-4 -10.834 -2 -15.501c8.66699 -26 24 -44.333 46 -55c4.66699 -2.66699 9.83398 -3.16699 15.501 -1.5s10.167 5.16699 13.5 10.5c2.66699 4 3.33398 9 2.00098 15s-4.66602 10.333 -9.99902 13
c-12.667 6 -22 15.667 -28 29c-4 10.667 -11 16 -21 16zM98.9971 255.001c-6 0 -11.166 -1.83203 -15.499 -5.49902s-6.5 -8.5 -6.5 -14.5c-2.66699 -34 -4 -105 -4 -213c0 -8 3 -14 9 -18c6.66699 -5.33301 14 -6 22 -2s12 10 12 18c0 14 -0.166992 32.5 -0.5 55.5
s-0.5 41.333 -0.5 55s0.166992 30.167 0.5 49.5s1.16602 37.666 2.49902 54.999c0 6 -1.83301 10.833 -5.5 14.5s-8.16699 5.5 -13.5 5.5z" />
    <glyph glyph-name="j" unicode="j" horiz-adv-x="423" 
d="M298 418h-3.99609c-5.33301 -2 -9.33301 -5.83301 -12 -11.5s-3.33398 -10.834 -2.00098 -15.501c9.33301 -25.333 25 -43.666 47 -54.999c5.33301 -2.66699 10.666 -3.16699 15.999 -1.5s9.33301 5.16699 12 10.5c2.66699 4 3.16699 9 1.5 15
s-4.83398 10.333 -9.50098 13c-14 6 -23.667 15.667 -29 29c-4.66699 10.667 -11.334 16 -20.001 16zM329.004 255c-5.33301 0 -10.332 -1.83105 -14.999 -5.49805s-7 -8.5 -7 -14.5c-1.33301 -35.333 -2.33301 -74.666 -3 -117.999s-1 -91 -1 -143
s-0.333008 -91.667 -1 -119c0 -1.33301 0.5 -8.83301 1.5 -22.5s1.5 -25.834 1.5 -36.501s-1.66699 -17.667 -5 -21c-6 -7.33301 -12.5 -12.333 -19.5 -15s-14.667 -2.83398 -23 -0.500977s-15.5 4.83301 -21.5 7.5s-13.333 6.5 -22 11.5s-14.667 8.16699 -18 9.5
c-36.667 17.333 -81 33.666 -133 48.999c-8 2 -14.5 0 -19.5 -6s-6.66699 -12.667 -5 -20s6.5 -12 14.5 -14c23.333 -6.66699 57.333 -21 102 -43s79.334 -36 104.001 -42c35.333 -8 59.666 -0.666992 72.999 22c8.66699 14.667 14 33.5 16 56.5s1.66699 51.167 -1 84.5
s-4 53.333 -4 60c0.666992 21.333 1.16699 52.5 1.5 93.5s0.666016 78.667 0.999023 113s1.5 65.5 3.5 93.5c0 6 -2 10.833 -6 14.5s-8.66699 5.5 -14 5.5z" />
    <glyph glyph-name="k" unicode="k" horiz-adv-x="437" 
d="M140 600c-5.33301 0 -9.83496 -1.67188 -13.502 -5.00488s-5.16699 -8.33301 -4.5 -15c7.33301 -97.333 6.66602 -235.666 -2.00098 -414.999l-71 -69c-6.66699 -5.33301 -8.16699 -12.666 -4.5 -21.999s10.167 -13.666 19.5 -12.999c10.667 1.33301 28 2 52 2
c-0.666992 -13.333 -2.16699 -33 -4.5 -59s-3.83301 -45.667 -4.5 -59c-0.666992 -8.66699 2.33301 -14.667 9 -18s13.667 -3.33301 21 0s11.333 9.33301 12 18c0.666992 12.667 1.83398 32 3.50098 58s2.5 45.333 2.5 58c69.333 -5.33301 136 -21.666 200 -48.999
c7.33301 -3.33301 14.333 -2.66602 21 2.00098s9.83398 10.334 9.50098 17.001s-3.83301 12 -10.5 16c-69.333 31.333 -141.333 49.666 -216 54.999c0 4.66699 0.333008 12 1 22s1 17.667 1 23c66.667 66.667 129.334 136.334 188.001 209.001
c5.33301 6.66699 6.33301 13.667 3 21s-8.33301 11.833 -15 13.5s-13 -0.5 -19 -6.5c-54 -66.667 -105.333 -125.334 -154 -176.001c6 138 5.33301 262 -2 372c-2 13.333 -9.33301 20 -22 20zM117.998 103.995v-1v1z" />
    <glyph glyph-name="l" unicode="l" horiz-adv-x="206" 
d="M106 600c-14.667 0 -23 -6.99707 -25 -20.9971c-16 -126.667 -20.667 -250.334 -14 -371.001v-40.5c0 -19.667 0.5 -36 1.5 -49s3 -27.833 6 -44.5s8.33301 -30.834 16 -42.501s17.5 -20.834 29.5 -27.501c8 -4.66699 15.667 -4.5 23 0.5s11 11.167 11 18.5
s-3.66699 13.333 -11 18c-9.33301 5.33301 -17 16.833 -23 34.5s-9.66699 39.334 -11 65.001s-2 49.167 -2 70.5s0.5 44.666 1.5 69.999s1.5 40.333 1.5 45c0 78 5.33301 162.333 16 253c2 14 -4.66699 21 -20 21z" />
    <glyph glyph-name="m" unicode="m" horiz-adv-x="473" 
d="M361 292c-7.33301 0 -14.8369 -1.66406 -22.5039 -4.99707s-15.334 -9.16602 -23.001 -17.499l-20 -22c-5.66699 -6.33301 -12.5 -16.333 -20.5 -30s-13.667 -23.667 -17 -30l-17.5 -33c-8.33301 -15.667 -13.166 -25.167 -14.499 -28.5c-0.666992 18 -1.5 32 -2.5 42
s-3.33301 22.5 -7 37.5s-8.83398 28.5 -15.501 40.5c-2.66699 4.66699 -6.5 7.33398 -11.5 8.00098s-9.5 -1 -13.5 -5c-4 -3.33301 -7.66699 -7.33301 -11 -12s-6 -8.66699 -8 -12s-4.5 -8.33301 -7.5 -15s-4.83301 -11 -5.5 -13s-2.66699 -7.33301 -6 -16
s-5.33301 -13.667 -6 -15c-4.66699 -14 -15.667 -40.667 -33 -80c0.666992 20.667 1.83398 51.167 3.50098 91.5s2.83398 70.5 3.50098 90.5c0 6.66699 -2.66699 11.5 -8 14.5s-10.833 3 -16.5 0s-8.5 -7.83301 -8.5 -14.5c-1.33301 -23.333 -2.5 -50.333 -3.5 -81l-3 -92
c-1 -30.667 -1.83301 -57.667 -2.5 -81c0 -8.66699 4.33301 -14.334 13 -17.001s15 -0.333984 19 6.99902c14.667 26.667 30.667 60 48 100c2 5.33301 7.33301 20.5 16 45.5s16.334 43.167 23.001 54.5c5.33301 -16 9.16602 -40.5 11.499 -73.5s3.83301 -52.833 4.5 -59.5
c0.666992 -6 4.5 -9.83301 11.5 -11.5s12.167 0.166016 15.5 5.49902c6.66699 8.66699 13.834 18.5 21.501 29.5s13.167 19.5 16.5 25.5l18.5 33.5c9 16.333 14.5 26.166 16.5 29.499l6 11.5c3.33301 6.33301 6.66602 12.166 9.99902 17.499l11 17.5
c4 6.33301 7.83301 11.166 11.5 14.499s7.16699 5 10.5 5c6 0 10.833 -2 14.5 -6s5.83398 -9.5 6.50098 -16.5s0.833984 -13 0.500977 -18s-1 -11.833 -2 -20.5s-1.5 -13.667 -1.5 -15c-0.666992 -2.66699 -2.66699 -13 -6 -31s-5.66602 -34.5 -6.99902 -49.5
s-2.16602 -31.333 -2.49902 -49s2.66699 -31.5 9 -41.5s15.5 -14.667 27.5 -14c6.66699 0.666992 11.5 3.83398 14.5 9.50098s3 11.167 0 16.5s-7.83301 8 -14.5 8c-1.33301 0 -0.833008 8.83301 1.5 26.5l8.5 65.5c3.33301 26 5.66602 52 6.99902 78s-1 48.667 -7 68
s-16 30 -30 32h-6z" />
    <glyph glyph-name="n" unicode="n" horiz-adv-x="401" 
d="M102 351c-6 0 -11.168 -1.66309 -15.501 -4.99609s-6.5 -8.33301 -6.5 -15c-2 -36 -4.83301 -90.167 -8.5 -162.5s-6.5 -126.5 -8.5 -162.5c-0.666992 -10 4.33301 -16.167 15 -18.5s18.667 0.5 24 8.5c42 63.333 74.667 121 98 173c0.666992 2 3.16699 8.66699 7.5 20
s8.66602 21.5 12.999 30.5s7.83301 13.5 10.5 13.5c8 0.666992 14.5 -13.5 19.5 -42.5s7.5 -49.833 7.5 -62.5c0.666992 -2.66699 1 -6.66699 1 -12c0 -8.66699 0.166992 -15.5 0.5 -20.5l1.5 -22.5c0.666992 -10 1.83398 -18 3.50098 -24s3.66699 -12.833 6 -20.5
s5.5 -13.334 9.5 -17.001s8.66699 -6.83398 14 -9.50098s11.833 -3.33398 19.5 -2.00098s15.834 4.66602 24.501 9.99902c7.33301 5.33301 11 11.333 11 18s-3.33301 12.167 -10 16.5s-13.667 4.5 -21 0.5c-12 -6 -18.333 8 -19 42c0 10 0.333008 22.333 1 37v4
c0 21.333 -2.66699 43 -8 65c-10.667 43.333 -27.667 73.333 -51 90c-6.66699 4 -13.334 4 -20.001 0c-7.33301 -6 -14.333 -13.5 -21 -22.5s-11.667 -17 -15 -24s-7.66602 -17 -12.999 -30s-9.33301 -21.833 -12 -26.5c-8.66699 -20 -26 -52.333 -52 -97l6 124l6 124
c0 13.333 -6 20 -18 20z" />
    <glyph glyph-name="o" unicode="o" horiz-adv-x="300" 
d="M166 286c-16 -0.666992 -30.334 -6.16797 -43.001 -16.501s-22.834 -23.166 -30.501 -38.499s-13.667 -29.666 -18 -42.999s-7.5 -26.333 -9.5 -39c0 -1.33301 -0.333008 -3.33301 -1 -6c-2 -12.667 -3.5 -23 -4.5 -31s-1.66699 -19.5 -2 -34.5
s0.833984 -27.333 3.50098 -37s7.83398 -18.834 15.501 -27.501s17.834 -14.334 30.501 -17.001c14 -2 27.333 0 40 6s23.167 13.5 31.5 22.5s16.666 21.333 24.999 37s14.333 28 18 37s7.83398 20.167 12.501 33.5c1.33301 2.66699 2 4.66699 2 6
c2 4.66699 1.66699 8.83398 -1 12.501s-6.66699 6.16699 -12 7.5v4c1.33301 10 2.16602 18 2.49902 24s0.5 14.833 0.5 26.5s-1.16699 21.167 -3.5 28.5s-5.5 15 -9.5 23s-10 13.833 -18 17.5s-17.667 5.16699 -29 4.5zM159.999 238.999
c5.33301 0.666992 9.83496 -1.50195 13.502 -6.50195s6 -12 7 -21s1.66699 -17 2 -24s0.333008 -15.333 0 -25l-0.5 -14.5c0 -7.33301 3.66699 -12.333 11 -15c-0.666992 -1.33301 -2.33398 -6.16602 -5.00098 -14.499s-4.66699 -14.166 -6 -17.499l-6.5 -15.5
c-3 -7 -5.83301 -12.333 -8.5 -16s-6 -7.66699 -10 -12s-8 -7.5 -12 -9.5c-32 -17.333 -47.333 -2.33301 -46 45c0 12.667 2 30.667 6 54l2 10c1.33301 6.66699 2.16602 11 2.49902 13s1.33301 6 3 12s3 10.333 4 13l4.5 11.5c2 5 4.16699 9 6.5 12s5 6 8 9
s6.16699 5.5 9.5 7.5c5.33301 2.66699 10.333 4 15 4z" />
    <glyph glyph-name="p" unicode="p" horiz-adv-x="446" 
d="M255 278c-24.667 0 -53.0068 -8.99902 -85.0068 -26.999v5c-1.33301 13.333 -8.66602 20.333 -21.999 21c-12 0.666992 -18.667 -4.33301 -20 -15v-6c0.666992 -2.66699 1.33398 -7.83398 2.00098 -15.501s1.33398 -13.167 2.00098 -16.5
c-8.66699 -6.66699 -21.834 -18.167 -39.501 -34.5l-40.5 -36.5c-6.66699 -5.33301 -8.66699 -11.333 -6 -18s7.33398 -11.167 14.001 -13.5s13.334 -1.16602 20.001 3.50098l55 48c1.33301 -12 2 -30.333 2 -55c-11.333 -4 -21 -9 -29 -15
c-8 -6.66699 -11.333 -14.334 -10 -23.001c5.33301 -28.667 17.333 -50.667 36 -66c-4 -53.333 -10.667 -106.333 -20 -159c-1.33301 -6 -3.83301 -16.333 -7.5 -31s-6.33398 -27 -8.00098 -37s-2.5 -21.167 -2.5 -33.5s3 -22.5 9 -30.5s15 -13.667 27 -17
c8 -2 14.333 -0.166992 19 5.5s6.33398 12.167 5.00098 19.5s-6 12 -14 14c-4 3.33301 -5.66699 11 -5 23s3 29 7 51l12 63.5l12 59c4 19 6.33301 31.833 7 38.5c0 2 0.333008 4.5 1 7.5s1 5.5 1 7.5c26.667 -5.33301 55.834 -1.5 87.501 11.5s58.834 32 81.501 57
s35 51.5 37 79.5c2.66699 32.667 -7.16602 62 -29.499 88s-49.833 41 -82.5 45c-1.33301 0 -3.83301 0.333008 -7.5 1s-6.5 1 -8.5 1zM262.993 239.001c28 0 50.999 -15.335 68.999 -46.002c12.667 -22.667 15.167 -44.5 7.5 -65.5s-20.334 -39 -38.001 -54
s-38.167 -25.833 -61.5 -32.5s-43.666 -7 -60.999 -1c0 4.66699 0.166992 12.334 0.5 23.001s0.5 18.334 0.5 23.001c2.66699 0.666992 5.83398 1.66699 9.50098 3s6.5 2.33301 8.5 3c8 1.33301 12.667 5.5 14 12.5s-0.5 13.333 -5.5 19s-11.5 7.83398 -19.5 6.50098
c-1.33301 0 -2.5 -0.333008 -3.5 -1s-2.16699 -1 -3.5 -1c0 7.33301 -0.166992 15.166 -0.5 23.499s-1 17.5 -2 27.5s-1.83301 17.667 -2.5 23c36.667 24.667 66 37 88 37z" />
    <glyph glyph-name="q" unicode="q" horiz-adv-x="362" 
d="M282 257c-13.333 2.66699 -21.9971 -2.66895 -25.9971 -16.002c-2 -9.33301 -4.66699 -18.666 -8 -27.999c-18 33.333 -46.667 45.333 -86 36c-22.667 -5.33301 -42.334 -18 -59.001 -38s-28.5 -41.5 -35.5 -64.5s-10.833 -46.5 -11.5 -70.5
c-0.666992 -28 3.83301 -48.167 13.5 -60.5s27.5 -14.833 53.5 -7.5c34 10.667 67.333 34 100 70c-13.333 -55.333 -22.333 -104 -27 -146c-4.66699 -47.333 -6.83398 -82.5 -6.50098 -105.5s5.16602 -57.833 14.499 -104.5c2 -9.33301 7.16699 -14.833 15.5 -16.5
s15.833 0.5 22.5 6.5s9 13.667 7 23c-8 38.667 -12.833 70.667 -14.5 96s-1.5 46.333 0.5 63s6.66699 48.667 14 96c4 22.667 12.833 60.834 26.5 114.501s22.167 95.5 25.5 125.5v6c1.33301 12 -5 19 -19 21zM174.003 197.997
c11.333 -0.666992 20.833 -5.83398 28.5 -15.501s11.834 -22.167 12.501 -37.5c-29.333 -54 -59.333 -82 -90 -84c-28.667 -1.33301 -35 22 -19 70c8.66699 20.667 18 37.334 28 50.001c13.333 13.333 26.666 19 39.999 17z" />
    <glyph glyph-name="r" unicode="r" horiz-adv-x="311" 
d="M167.5 291c-3 0 -6.49805 -0.999023 -10.498 -2.99902c-20 -12 -32.667 -40.667 -38 -86c-2 -16.667 -4.66699 -34.334 -8 -53.001c-2 19.333 -7.66699 59.333 -17 120c-2 8 -6.33301 12.833 -13 14.5s-12.667 0 -18 -5s-7 -11.5 -5 -19.5c12 -64 19 -144.333 21 -241
c0 -10.667 5.5 -16.5 16.5 -17.5s18.167 3.5 21.5 13.5c17.333 56.667 27.666 94.667 30.999 114c0 0.666992 0.833008 7.5 2.5 20.5s3.33398 25.333 5.00098 37s3.66699 23.667 6 36s4.16602 20.166 5.49902 23.499c0 -4 4 -11.167 12 -21.5s14 -17.5 18 -21.5
c16 -8.66699 33 -8.66699 51 0c7.33301 4 11.166 9 11.499 15s-2.66699 11.333 -9 16s-13.166 5.33398 -20.499 2.00098c-4.66699 -2 -10.334 0.833008 -17.001 8.5s-13.5 16.5 -20.5 26.5s-12.167 16 -15.5 18s-6.5 3 -9.5 3z" />
    <glyph glyph-name="s" unicode="s" horiz-adv-x="247" 
d="M109 288c-17.333 0 -30.665 -7.33594 -39.998 -22.0029c-16 -22 -15 -54.667 3 -98c4 -8.66699 10 -21 18 -37c0 -0.666992 -1.33301 -5.33398 -4 -14.001s-4.33398 -14.334 -5.00098 -17.001l-4 -16c-2 -8 -3 -14 -3 -18v-15.5c0 -6.33301 0.833008 -12 2.5 -17
s4.16699 -9.5 7.5 -13.5c8 -12 19.5 -18.667 34.5 -20s27.5 3.33398 37.5 14.001c2 2 3 4 3 6c4.66699 -1.33301 9 -0.5 13 2.5s6 6.5 6 10.5c0.666992 6 -0.333008 12.833 -3 20.5s-5.16699 13.834 -7.5 18.501s-6.5 11.834 -12.5 21.501s-9.66699 15.834 -11 18.501
c-1.33301 2 -5 8 -11 18s-10.833 18.333 -14.5 25s-6.83398 13.334 -9.50098 20.001c-6 12.667 -10 27 -12 43c-4.66699 22 0.333008 32 15 30c10 -1.33301 23.333 -8 40 -20c2 -6 6.5 -9.5 13.5 -10.5s13 0.166992 18 3.5s6.5 8 4.5 14
c-5.33301 12.667 -15.833 24.667 -31.5 36s-31.5 17 -47.5 17zM117.001 89.9971c14 -19.333 22 -35.668 24 -49.001c-1.33301 -0.666992 -2 -2.66699 -2 -6c-7.33301 0 -12.333 -2.33301 -15 -7c-3.33301 -3.33301 -7 4.33398 -11 23.001l-1 2c0 10 0.666992 17.667 2 23
c0 2 1 6.66699 3 14z" />
    <glyph glyph-name="t" unicode="t" horiz-adv-x="374" 
d="M183 479c-8 0 -12.9941 -4.33594 -14.9941 -13.0029c-13.333 -57.333 -25.333 -111.333 -36 -162c-2 0 -6.5 -0.333008 -13.5 -1s-12.167 -1.33398 -15.5 -2.00098s-8.16602 -1.5 -14.499 -2.5s-11.333 -2.33301 -15 -4s-7.5 -3.66699 -11.5 -6
s-7.33301 -5.16602 -10 -8.49902s-4.66699 -7.33301 -6 -12c-1.33301 -8 1.66699 -15.333 9 -22c13.333 -10 34.333 -15 63 -15c-8.66699 -63.333 -10.334 -117.666 -5.00098 -162.999c5.33301 -38.667 19.666 -61.334 42.999 -68.001c3.33301 -2 7.16602 -2.5 11.499 -1.5
s7.66602 1.5 9.99902 1.5s5.5 1.5 9.5 4.5s6.83301 5 8.5 6s4.16699 3.5 7.5 7.5s5.83301 6.83301 7.5 8.5s4.16699 4.5 7.5 8.5s5.66602 6.66699 6.99902 8c4.66699 6 5.66699 12.333 3 19s-6.83398 10.834 -12.501 12.501s-11.5 -0.166016 -17.5 -5.49902
c-0.666992 -1.33301 -3 -4.66602 -7 -9.99902s-7.83301 -10.166 -11.5 -14.499s-6.16699 -6.5 -7.5 -6.5c-8.66699 -0.666992 -14.5 5 -17.5 17s-4.5 23.667 -4.5 35c-1.33301 34 2 79.333 10 136c2 21.333 4.33301 37.333 7 48c21.333 2.66699 32.666 4 33.999 4
c28.667 4 66 6 112 6c7.33301 0 12.5 3.16699 15.5 9.5s3 12.5 0 18.5s-8.16699 9 -15.5 9c-44 0 -90.667 -3.33301 -140 -10c7.33301 44.667 17.333 92.667 30 144c2 7.33301 0.833008 13.166 -3.5 17.499s-9.83301 6.5 -16.5 6.5zM125.006 267.997h-5h5z" />
    <glyph glyph-name="u" unicode="u" horiz-adv-x="363" 
d="M254 278c-6 0 -11.334 -2.00293 -16.001 -6.00293s-7 -9.33301 -7 -16v-5c-3.33301 -3.33301 -5.66602 -7.33301 -6.99902 -12c-23.333 -76.667 -50 -134 -80 -172c-14.667 -20.667 -26.667 -23.667 -36 -9c-2 3.33301 -3.16699 7.83301 -3.5 13.5
s-0.166016 12.5 0.500977 20.5s1 12.667 1 14c0 30.667 3.33301 69.667 10 117c1.33301 12.667 -4.5 21.334 -17.5 26.001s-21.167 1.66699 -24.5 -9c-0.666992 -2 -1.33398 -3.66699 -2.00098 -5c-10.667 -79.333 -13.334 -139.333 -8.00098 -180
c2 -16.667 7.33301 -30.167 16 -40.5s21 -15.166 37 -14.499c13.333 1.33301 25.833 6.5 37.5 15.5s20.5 18 26.5 27s13 20.167 21 33.5c12 22 21.667 41 29 57c0 -15.333 1 -38.666 3 -69.999c1.33301 -12.667 2.66602 -22.167 3.99902 -28.5s3.5 -14.666 6.5 -24.999
s7.66699 -18.333 14 -24s14.166 -9.16699 23.499 -10.5c12.667 -2 21.334 3.5 26.001 16.5s1.33398 21.5 -9.99902 25.5c-1.33301 0.666992 -2.66602 1 -3.99902 1c-22 3.33301 -28 82.666 -18 237.999c0 6.66699 -2.16699 12 -6.5 16s-9.5 6 -15.5 6z" />
    <glyph glyph-name="v" unicode="v" horiz-adv-x="324" 
d="M249 291c-7.33301 0 -12.9951 -4.33105 -16.9951 -12.998c-2.66699 -8.66699 -8.33398 -29 -17.001 -61s-16.667 -58.5 -24 -79.5s-15.666 -40.833 -24.999 -59.5c-1.33301 -1.33301 -2.66602 -3.83301 -3.99902 -7.5s-2.5 -6.33398 -3.5 -8.00098l-4 -6.5
c-1.66699 -2.66699 -3.33398 -4.16699 -5.00098 -4.5s-3.83398 -1 -6.50098 -2s-5.66699 -0.5 -9 1.5c-2 1.33301 -3.83301 2.66602 -5.5 3.99902s-3.33398 3 -5.00098 5s-2.83398 3.66699 -3.50098 5s-1.5 3.66602 -2.5 6.99902s-1.66699 5.5 -2 6.5s-1 3.5 -2 7.5
s-1.5 6.33301 -1.5 7c-9.33301 32 -14 73 -14 123c0 8 -3.5 13.667 -10.5 17s-13.833 3.33301 -20.5 0s-10 -9 -10 -17c0 -9.33301 0.333008 -20.166 1 -32.499s2 -28 4 -47s5.16699 -36.833 9.5 -53.5s9.5 -32.167 15.5 -46.5s14 -24.833 24 -31.5s21.333 -7.66699 34 -3
c24.667 8.66699 46.667 35.667 66 81c9.33301 24 21.166 59.667 35.499 107s22.166 73.333 23.499 78c2.66699 7.33301 1.5 13 -3.5 17s-10.833 6 -17.5 6z" />
    <glyph glyph-name="w" unicode="w" horiz-adv-x="395" 
d="M316 292c-3.33301 0 -6.67188 -1.16309 -10.0049 -3.49609s-5.66602 -5.5 -6.99902 -9.5c-4.66699 -19.333 -9.66699 -49.833 -15 -91.5s-11 -73.167 -17 -94.5c0 -0.666992 -0.666992 -3.16699 -2 -7.5l-4 -13c-1.33301 -4.33301 -3 -9 -5 -14
s-3.66699 -8.83301 -5 -11.5s-2.66602 -4 -3.99902 -4c-2 22 -3 34.667 -3 38l-6 53c-2.66699 23.333 -5 40.666 -7 51.999c-0.666992 8.66699 -5.66699 14.834 -15 18.501s-16 0.833984 -20 -8.49902c-8.66699 -17.333 -21.167 -44 -37.5 -80l-37.5 -81
c-9.33301 14 -15.666 35.333 -18.999 64s-4.66602 50.834 -3.99902 66.501s2 37.167 4 64.5c0.666992 7.33301 -2 12.666 -8 15.999s-12.333 3.33301 -19 0s-10.334 -8.66602 -11.001 -15.999c0 -2.66699 -0.333008 -11.334 -1 -26.001s-1.16699 -24.667 -1.5 -30
s-0.5 -15 -0.5 -29s0.333008 -24.667 1 -32s1.66699 -17.333 3 -30s3.5 -22.834 6.5 -30.501l10 -25.5c3.66699 -9.33301 8.5 -17.5 14.5 -24.5s12.667 -12.833 20 -17.5c4 -2.66699 9 -3 15 -1s10 5 12 9l28.5 61l28.5 60c0 -4.66699 0.5 -12.334 1.5 -23.001
s1.83301 -18.834 2.5 -24.501s1.83398 -12.667 3.50098 -21s3.83398 -15.833 6.50098 -22.5c3.33301 -10 8.83301 -17.5 16.5 -22.5s16.5 -5.83301 26.5 -2.5c21.333 9.33301 38.333 40 51 92c4.66699 19.333 9.16699 49.166 13.5 89.499s8.83301 70.166 13.5 89.499
c2 7.33301 0.833008 13 -3.5 17s-9.5 6 -15.5 6z" />
    <glyph glyph-name="x" unicode="x" horiz-adv-x="367" 
d="M290 274c-10 0 -15.999 -5.00098 -17.999 -15.001c-6 -24 -30.333 -56 -73 -96c-30.667 59.333 -66.334 93.333 -107.001 102c-9.33301 1.33301 -17.333 -2 -24 -10l-4 -4c-4.66699 -6 -4.66699 -13 0 -21c0 -0.666992 0.333008 -1.33398 1 -2.00098
s1 -1.33398 1 -2.00098c6.66699 -12 16 -14.667 28 -8c24 -12 47.333 -41.333 70 -88c-32.667 -32.667 -66.334 -64 -101.001 -94c-7.33301 -5.33301 -9.83301 -11.833 -7.5 -19.5s7.16602 -12.5 14.499 -14.5s14.666 -0.666992 21.999 4c38 32.667 68 60 90 82
c4 -8.66699 11 -26 21 -52s18 -45.667 24 -59c4.66699 -7.33301 10.5 -11.166 17.5 -11.499s13 3 18 10s5.5 14.5 1.5 22.5c-5.33301 12 -13.166 32.667 -23.499 62s-18.166 50.333 -23.499 63c1.33301 1.33301 2.83301 3 4.5 5s2.83398 3.66699 3.50098 5l24.5 24
c12.333 12 21.833 21.667 28.5 29s13.667 16.833 21 28.5s12.333 22.834 15 33.501c1.33301 7.33301 -0.5 13.833 -5.5 19.5s-11.167 7.83398 -18.5 6.50098z" />
    <glyph glyph-name="y" unicode="y" horiz-adv-x="430" 
d="M341 284c-12.667 0 -20.0029 -6.33398 -22.0029 -19.001c-1.33301 -12 -3 -35 -5 -69c-23.333 -87.333 -51.666 -136 -84.999 -146c-10.667 -3.33301 -17.834 -3.66602 -21.501 -0.999023s-6.5 9 -8.5 19c-3.33301 18 -6 37 -8 57c-4 42.667 -3.66699 88 1 136
c0.666992 8.66699 -2.16602 14.667 -8.49902 18s-13 3.33301 -20 0s-10.5 -9.33301 -10.5 -18c-8 -80 -6 -148 6 -204c4 -18 10.167 -32.333 18.5 -43s20.5 -15.334 36.5 -14.001c30 3.33301 61 25 93 65c-1.33301 -42.667 -2.33301 -80 -3 -112s-0.666992 -53.667 0 -65
c0 -1.33301 0.5 -6.83301 1.5 -16.5s1.66699 -16.334 2 -20.001s0.666016 -9.66699 0.999023 -18s0.5 -14.666 0.5 -18.999s-0.166992 -9.5 -0.5 -15.5s-1.16602 -10.833 -2.49902 -14.5s-3 -6.83398 -5 -9.50098c-4.66699 -6.66699 -13 -10.167 -25 -10.5
s-25.5 1.33398 -40.5 5.00098s-31.5 8.83398 -49.5 15.501s-34.5 13.334 -49.5 20.001l-44 19c-14.333 6 -24.166 9.66699 -29.499 11c-8 2 -14.5 0.166992 -19.5 -5.5s-6.66699 -12 -5 -19s6.5 -11.5 14.5 -13.5c37.333 -10.667 94 -34 170 -70
c33.333 -16.667 58.666 -23 75.999 -19c12.667 4 22.5 10.333 29.5 19s11.667 19.667 14 33s3.5 25.5 3.5 36.5s-0.666992 24.667 -2 41s-2 27.166 -2 32.499c2 130 6 234.667 12 314c2 7.33301 4.33301 17.5 7 30.5s4.33398 20.167 5.00098 21.5
c2.66699 7.33301 0.333984 14 -6.99902 20v9c0.666992 6 -0.833008 10.667 -4.5 14s-8.16699 5 -13.5 5z" />
    <glyph glyph-name="z" unicode="z" horiz-adv-x="478" 
d="M280 263l-17 0.000976562c-58 -2 -123.667 -12 -197 -30c-8 -2 -12.833 -6.83301 -14.5 -14.5s0.166016 -14.334 5.49902 -20.001s12.333 -7.5 21 -5.5c35.333 8.66699 81 16.334 137 23.001c26 2.66699 45 4 57 4c-0.666992 -0.666992 -3.66699 -3 -9 -7
c-20 -14.667 -40.333 -31.834 -61 -51.501s-43.167 -42.5 -67.5 -68.5s-43.166 -45.333 -56.499 -58c-8 -8 -9 -16.333 -3 -25s14.333 -12 25 -10c100.667 16 201.667 9.66699 303 -19c8.66699 -2.66699 15.667 -1.16699 21 4.5s7.16602 12.5 5.49902 20.5
s-6.5 13.333 -14.5 16c-82.667 24 -170 32.667 -262 26l55.5 54l55.5 55c0.666992 0 8.83398 6.33301 24.501 19s26.667 24 33 34s7.5 20.333 3.5 31c-5.33301 14.667 -20.333 22 -45 22z" />
    <glyph glyph-name=".null" horiz-adv-x="0" 
 />
    <glyph glyph-name="nonmarkingreturn" horiz-adv-x="333" 
 />
    </font>
</defs>
</svg>
